<svg width="24" height="24" viewBox="0 0 24 24" fill="none" xmlns="http://www.w3.org/2000/svg">
<path d="M15.0001 3.75C15.0001 3.15666 14.8241 2.57664 14.4945 2.08329C14.1648 1.58994 13.6963 1.20543 13.1481 0.978363C12.5999 0.7513 11.9967 0.69189 11.4148 0.807646C10.8328 0.923401 10.2983 1.20912 9.87874 1.62868C9.45918 2.04824 9.17346 2.58279 9.0577 3.16473C8.94195 3.74667 9.00136 4.34987 9.22842 4.89805C9.45548 5.44623 9.84 5.91477 10.3333 6.24441C10.8267 6.57405 11.4067 6.75 12.0001 6.75C12.7957 6.75 13.5588 6.43393 14.1214 5.87132C14.684 5.30871 15.0001 4.54565 15.0001 3.75ZM12.0001 5.25C11.7034 5.25 11.4134 5.16203 11.1667 4.99721C10.92 4.83238 10.7278 4.59812 10.6142 4.32403C10.5007 4.04994 10.471 3.74834 10.5289 3.45737C10.5868 3.16639 10.7296 2.89912 10.9394 2.68934C11.1492 2.47956 11.4165 2.3367 11.7074 2.27882C11.9984 2.22095 12.3 2.25065 12.5741 2.36418C12.8482 2.47771 13.0824 2.66997 13.2473 2.91665C13.4121 3.16332 13.5001 3.45333 13.5001 3.75C13.5001 4.14783 13.342 4.52936 13.0607 4.81066C12.7794 5.09197 12.3979 5.25 12.0001 5.25ZM21.7032 8.22281C21.6178 7.80278 21.3884 7.42574 21.0546 7.15684C20.7209 6.88793 20.3036 6.74403 19.8751 6.75H4.12506C3.69764 6.74999 3.28304 6.89601 2.94996 7.16387C2.61688 7.43173 2.38532 7.80536 2.29364 8.22283C2.20196 8.64031 2.25567 9.07658 2.44587 9.45935C2.63607 9.84212 2.95133 10.1484 3.33943 10.3275H3.35162L8.10943 12.4228L6.14068 19.8966C5.93468 20.3503 5.91738 20.8673 6.09258 21.3339C6.26778 21.8004 6.62113 22.1782 7.0749 22.3842C7.52867 22.5902 8.04569 22.6075 8.51221 22.4323C8.97874 22.2571 9.35656 21.9038 9.56256 21.45L12.0001 17.2434L14.4376 21.45C14.6542 21.8844 15.0308 22.2179 15.4883 22.3803C15.9458 22.5427 16.4484 22.5213 16.8904 22.3207C17.3325 22.1201 17.6795 21.7559 17.8585 21.3046C18.0374 20.8534 18.0344 20.3503 17.8501 19.9013L15.8813 12.4275L20.6391 10.3322H20.6513C21.0456 10.1591 21.3668 9.85327 21.559 9.46788C21.7512 9.08249 21.8022 8.64192 21.7032 8.22281ZM20.0344 8.96344L14.6972 11.3128C14.5339 11.3848 14.4015 11.5127 14.324 11.6736C14.2465 11.8344 14.2289 12.0177 14.2744 12.1903L16.4185 20.3438C16.4294 20.3874 16.4448 20.4298 16.4644 20.4703C16.4959 20.5376 16.5067 20.6127 16.4954 20.6861C16.4841 20.7595 16.4513 20.8279 16.4011 20.8827C16.3509 20.9374 16.2855 20.976 16.2133 20.9935C16.1412 21.0111 16.0654 21.0068 15.9957 20.9813C15.9024 20.947 15.8266 20.8773 15.7847 20.7872C15.7752 20.7669 15.7646 20.7472 15.7529 20.7281L12.6488 15.375C12.5829 15.2613 12.4882 15.167 12.3744 15.1014C12.2605 15.0358 12.1314 15.0013 12.0001 15.0013C11.8687 15.0013 11.7396 15.0358 11.6257 15.1014C11.5119 15.167 11.4172 15.2613 11.3513 15.375L8.25006 20.7234C8.23832 20.7425 8.22768 20.7622 8.21818 20.7825C8.17634 20.8726 8.10048 20.9424 8.00725 20.9766C7.93751 21.0021 7.86175 21.0064 7.78958 20.9888C7.71741 20.9713 7.65208 20.9327 7.60186 20.878C7.55165 20.8233 7.51883 20.7548 7.50754 20.6814C7.49626 20.608 7.50703 20.5329 7.5385 20.4656C7.55811 20.4251 7.5735 20.3827 7.58443 20.3391L9.72568 12.1875C9.77119 12.0148 9.75362 11.8316 9.67611 11.6708C9.59861 11.5099 9.46626 11.382 9.30287 11.31L3.96568 8.96344C3.88907 8.92688 3.82713 8.86541 3.78999 8.78909C3.75284 8.71276 3.74269 8.62608 3.7612 8.54324C3.77971 8.46039 3.82577 8.38628 3.89187 8.33301C3.95796 8.27975 4.04017 8.25048 4.12506 8.25H19.8751C19.9602 8.24985 20.0428 8.27866 20.1094 8.3317C20.176 8.38475 20.2225 8.45886 20.2414 8.54187C20.2603 8.62488 20.2503 8.71184 20.2132 8.78845C20.1761 8.86507 20.1141 8.92678 20.0372 8.96344H20.0344Z" fill="#444444"/>
</svg>
