<svg width="60" height="61" viewBox="0 0 60 61" fill="none" xmlns="http://www.w3.org/2000/svg">
<g clip-path="url(#clip0_48_32)">
<path d="M23.3692 34.2174V42.614C23.3692 43.0957 23.7596 43.4862 24.2414 43.4862C24.7231 43.4862 25.1135 43.0957 25.1135 42.614V33.2103L27.7067 31.7131C28.1238 31.4723 28.2667 30.9389 28.0259 30.5218C27.7852 30.1045 27.2514 29.9616 26.8346 30.2026L25.1135 31.1962V24.0981C25.1135 23.6021 24.8173 23.159 24.3592 22.9692C23.9008 22.7796 23.3783 22.8834 23.0282 23.2339L14.7116 31.5515C14.5421 31.7225 14.298 31.822 14.0559 31.822C13.5019 31.822 13.2684 31.4066 13.21 31.2793C13.1516 31.1519 12.9892 30.7038 13.3505 30.2839L22.7588 19.3555C23.4783 18.5207 24.5226 18.042 25.624 18.042H27.9765C28.9062 18.042 29.6626 17.2855 29.6626 16.3558V14.8022H32.4535V16.3558C32.4535 16.8148 32.6383 17.231 32.9368 17.5353L32.3766 17.8588C31.9595 18.0996 31.8167 18.6332 32.0575 19.0503C32.3009 19.4718 32.8382 19.607 33.249 19.3694L35.5474 18.042H36.4933C37.594 18.042 38.6378 18.5207 39.3571 19.3552L42.6548 23.1858C42.8273 23.3861 43.071 23.4889 43.3161 23.4889C43.5177 23.4889 43.7202 23.4195 43.8849 23.2777C44.2499 22.9634 44.2911 22.4128 43.9768 22.0478L40.6788 18.2168C39.9952 17.4238 39.1106 16.8525 38.1335 16.5485L42.5024 14.0254C42.871 14.3772 43.3237 14.6334 43.8297 14.769C45.4285 15.1974 47.17 14.2088 47.6038 12.5899C48.0436 10.9486 47.0661 9.25561 45.4249 8.8157C43.7833 8.3759 42.0904 9.35341 41.6508 10.9948C41.5153 11.5002 41.5107 12.0198 41.6307 12.5146L35.0802 16.2977H34.1981V14.5897C35.719 14.064 36.8148 12.6187 36.8148 10.9214V7.18548C36.8148 4.01157 34.2326 1.42932 31.0585 1.42932C28.515 1.42932 26.3529 3.08838 25.5939 5.38072H17.862C17.7216 4.90197 17.4631 4.45067 17.0861 4.07367C15.8844 2.87208 13.9296 2.87232 12.7279 4.07367C11.5264 5.27525 11.5264 7.23014 12.7279 8.43172C13.9295 9.63331 15.8844 9.63342 17.0861 8.43172C17.4629 8.05484 17.7214 7.60376 17.8619 7.12501H25.304C25.3038 7.14525 25.3025 7.16525 25.3025 7.18548V10.9214C25.3025 12.6186 26.398 14.0638 27.9187 14.5895V16.2977H25.6244C24.0148 16.2977 22.4889 16.9972 21.4376 18.2172L12.0289 29.1459C11.3384 29.948 11.1835 31.0441 11.6249 32.0064C12.0662 32.9686 12.9979 33.5663 14.0562 33.5663C14.7558 33.5663 15.456 33.2786 15.9475 32.7828L23.3696 25.3597V32.2034L13.0473 38.1628C12.6864 37.8185 12.2369 37.5572 11.7221 37.4193C10.0969 36.9838 8.38239 37.9776 7.94806 39.5984C7.51536 41.213 8.50042 42.9367 10.1269 43.3726C11.7272 43.8014 13.4564 42.853 13.9011 41.1935C14.0391 40.6784 14.0374 40.1583 13.9196 39.6734L23.3692 34.2174ZM43.3353 11.4462C43.5285 10.725 44.2754 10.3137 44.9731 10.5007C45.6855 10.6915 46.1096 11.4262 45.9188 12.1385C45.7309 12.8398 44.9808 13.2715 44.281 13.084C43.5687 12.8932 43.1445 12.1585 43.3353 11.4462ZM16.2432 6.25392C16.2429 6.59591 16.1126 6.93791 15.8521 7.19828C15.331 7.7197 14.4823 7.71947 13.961 7.19828C13.4396 6.67685 13.4396 5.82842 13.961 5.307C14.4823 4.78569 15.3307 4.78569 15.8521 5.307C16.1126 5.56748 16.243 5.90948 16.2432 6.25159V6.25287C16.2431 6.25322 16.2432 6.25357 16.2432 6.25392ZM27.0464 10.9214V7.18548C27.0464 7.16525 27.0477 7.14525 27.0479 7.12501H28.5498C29.0315 7.12501 29.4219 6.73453 29.4219 6.25287C29.4219 5.77121 29.0315 5.38072 28.5498 5.38072H27.477C28.1387 4.07285 29.4951 3.17361 31.0583 3.17361C33.2704 3.17361 35.0702 4.97337 35.0702 7.18548V10.9214C35.0702 12.0995 34.1117 13.0579 32.9336 13.0579H29.1828C28.0047 13.0579 27.0464 12.0995 27.0464 10.9214ZM12.2159 40.7418C12.0249 41.4541 11.2895 41.878 10.578 41.6873C9.86574 41.4965 9.44164 40.7618 9.63235 40.0496C9.82085 39.3459 10.5686 38.9161 11.2701 39.104C11.9826 39.2949 12.4067 40.0296 12.2159 40.7418ZM51.1946 37.2152C49.9929 36.0137 48.0382 36.0136 46.8365 37.2152C46.4595 37.5922 46.201 38.0434 46.0605 38.5223H38.748V25.3607L46.1689 32.7826C46.6739 33.2879 47.3459 33.5661 48.0612 33.5661C49.1199 33.5661 50.0514 32.9683 50.4925 32.0059C50.9336 31.0437 50.7782 29.9476 50.0874 29.1458L46.634 25.1346C46.3196 24.7695 45.769 24.7285 45.404 25.0426C45.039 25.3568 44.9979 25.9075 45.3122 26.2726L48.7658 30.2842C49.1275 30.704 48.9653 31.1519 48.9069 31.2793C48.8486 31.4066 48.6152 31.822 48.0613 31.822C47.812 31.822 47.5781 31.7252 47.4024 31.5495L39.0879 23.2338C38.7375 22.8836 38.2158 22.7797 37.7577 22.9692C37.2997 23.159 37.0038 23.6022 37.0038 24.0983V38.5224H35.3733C34.8916 38.5224 34.5012 38.9129 34.5012 39.3945C34.5012 39.8762 34.8916 40.2667 35.3733 40.2667H37.0038V56.2444C37.0038 57.1597 37.6216 57.9651 38.5079 58.2033L40.2404 58.666C40.3814 58.7081 40.4493 58.7964 40.4493 58.9398C40.4493 59.0962 40.3226 59.2235 40.1668 59.2235H35.5175C35.371 59.2235 35.2498 59.1134 35.2354 58.9676L33.284 39.038C33.1759 37.9073 32.1899 37.021 31.0579 37.021C29.9017 37.021 28.9446 37.8887 28.8317 39.0396L26.8805 58.9672C26.8662 59.1134 26.7449 59.2235 26.5984 59.2235H21.9504C21.7716 59.2167 21.6667 59.1187 21.6667 58.9398C21.6667 58.8119 21.7537 58.6992 21.8767 58.666L23.6113 58.2028C24.4957 57.9643 25.1135 57.159 25.1135 56.2443V46.6842C25.1135 46.2025 24.7231 45.812 24.2414 45.812C23.7596 45.812 23.3692 46.2025 23.3692 46.6842V56.2443C23.3692 56.3722 23.2821 56.4849 23.1592 56.518L21.425 56.9812C20.5403 57.2191 19.9224 58.0246 19.9224 58.9398C19.9224 60.0405 20.8455 60.9739 21.9504 60.9678H26.5984C27.6465 60.9678 28.5141 60.181 28.6164 59.1376L30.5676 39.2099C30.5925 38.9565 30.8033 38.7653 31.0579 38.7653C31.3067 38.7653 31.5245 38.961 31.5482 39.2096L33.4995 59.1378C33.6021 60.181 34.4697 60.9678 35.5175 60.9678H40.1666C41.2841 60.9678 42.1935 60.058 42.1935 58.9398C42.1935 58.0372 41.5641 57.2112 40.6905 56.9808L38.9592 56.5184C38.8348 56.4849 38.748 56.3722 38.748 56.2443V40.2666H46.0606C46.2011 40.7452 46.4596 41.1964 46.8365 41.5733C48.038 42.775 49.9931 42.7748 51.1946 41.5733C52.3961 40.3717 52.3961 38.4168 51.1946 37.2152ZM49.9611 40.3398C49.4399 40.8611 48.5912 40.8612 48.0699 40.3398C47.5485 39.8184 47.5485 38.97 48.0699 38.4485C48.5913 37.9272 49.4396 37.9272 49.9611 38.4485C50.4826 38.9701 50.4826 39.8184 49.9611 40.3398Z" fill="#0A66C2"/>
</g>
<defs>
<clipPath id="clip0_48_32">
<rect width="60" height="60" fill="white" transform="translate(0 0.967773)"/>
</clipPath>
</defs>
</svg>
