<svg width="60" height="61" viewBox="0 0 60 61" fill="none" xmlns="http://www.w3.org/2000/svg">
<g clip-path="url(#clip0_48_176)">
<path d="M54.7722 14.0502C54.4066 13.5162 53.6773 13.3796 53.1434 13.7452C52.6094 14.1107 52.4728 14.8399 52.8385 15.3739C60.3413 26.334 58.9586 41.117 49.5509 50.5247C38.7689 61.3068 21.2252 61.3068 10.4432 50.5247C-0.338891 39.7427 -0.338891 22.199 10.4432 11.417C19.8526 2.00761 34.6377 0.626229 45.5982 8.13247C46.1321 8.49817 46.8615 8.36178 47.2271 7.82781C47.5928 7.29384 47.4564 6.56466 46.9224 6.19896C35.0314 -1.94436 18.9928 -0.446744 8.78612 9.76003C3.12047 15.4257 0.000213623 22.9585 0.000213623 30.971C0.000213623 38.9834 3.12047 46.5163 8.78612 52.1819C14.4518 57.8475 21.9846 60.9678 29.9971 60.9678C38.0095 60.9678 45.5424 57.8475 51.208 52.1819C61.4129 41.9771 62.9118 25.9404 54.7722 14.0502Z" fill="#0A66C2"/>
<path d="M12.5972 13.5714C3.00307 23.1656 3.00307 38.7765 12.5972 48.3706C17.3944 53.1677 23.6956 55.5662 29.9969 55.5662C36.2983 55.5662 42.5995 53.1677 47.3966 48.3706C56.9908 38.7765 56.9908 23.1656 47.3966 13.5714C37.8023 3.97719 22.1915 3.97719 12.5972 13.5714ZM14.2545 15.2285C18.5947 10.8883 24.2958 8.71809 29.9969 8.71809C35.333 8.71809 40.669 10.6193 44.8893 14.4215L41.1628 18.148C41.0227 18.0912 40.8805 18.0373 40.7364 17.9865C35.6522 16.1941 30.0568 18.8719 28.264 23.9564C27.9071 24.9688 27.72 26.0167 27.706 27.0778C27.1839 27.6063 26.2971 27.9961 25.6728 27.9349C22.5199 27.6304 19.4828 29.0872 17.7473 31.7374L17.6487 31.888C16.6065 33.4794 14.926 34.5251 13.0378 34.7568L11.1328 34.9905C10.6029 35.0556 10.1839 35.4705 10.1138 35.9996C10.0438 36.5289 10.3402 37.0385 10.8349 37.2392L13.5966 38.3599C14.377 38.6766 15.191 38.8297 15.9961 38.8297C17.8267 38.8297 19.6111 38.0381 20.8498 36.5779L21.0452 36.3475C21.8762 35.3678 23.1264 34.8593 24.3748 34.9359L13.4475 45.8632C5.58291 37.1341 5.85194 23.631 14.2545 15.2285ZM44.4962 29.6797C43.8359 31.5524 42.4858 33.056 40.6948 33.9132C38.9037 34.7705 36.8859 34.8791 35.0132 34.2187C33.9105 33.8299 32.9432 33.2096 32.1382 32.3751C31.7972 32.0215 31.272 31.9184 30.8226 32.1161L30.2623 32.3629L41.6061 21.0191C44.3691 22.8596 45.6494 26.4086 44.4962 29.6797ZM26.3329 32.9779C26.3001 32.9673 26.2673 32.9562 26.2346 32.9446C23.7594 32.0718 20.9561 32.83 19.2582 34.8315L19.0627 35.0619C18.2004 36.0784 16.9198 36.5821 15.6426 36.4699C17.2484 35.8001 18.634 34.6613 19.6092 33.1718L19.7078 33.0213C20.9646 31.1021 23.164 30.0471 25.4474 30.2674C27.0103 30.4181 28.9002 29.5139 29.8427 28.1632C29.9876 27.9556 30.0613 27.7067 30.0529 27.4536C30.022 26.5302 30.1638 25.6158 30.4742 24.7355C31.7616 21.0843 35.6277 19.065 39.3101 20.0005L26.3329 32.9779ZM45.7395 46.7135C37.3369 55.1159 23.8338 55.385 15.1047 47.5205L27.1225 35.5027C28.1472 35.5762 29.1809 35.3999 30.1413 34.9769L31.0529 34.5754C31.9821 35.389 33.0489 36.011 34.2339 36.4288C36.6971 37.2973 39.3508 37.1545 41.7065 36.0271C44.0622 34.8995 45.8378 32.922 46.7063 30.4589C48.1688 26.3109 46.6558 21.823 43.288 19.337L46.5464 16.0786C54.411 24.8078 54.142 38.3109 45.7395 46.7135Z" fill="#0A66C2"/>
<path d="M49.5043 11.2643C49.6895 11.709 50.1408 12.0046 50.624 11.9877C51.1207 11.9704 51.5619 11.6312 51.7072 11.1564C51.8523 10.6818 51.6711 10.1523 51.268 9.86369C50.8812 9.58681 50.3539 9.5758 49.9533 9.83089C49.4818 10.1313 49.2896 10.749 49.5043 11.2643Z" fill="#0A66C2"/>
</g>
<defs>
<clipPath id="clip0_48_176">
<rect width="60" height="60" fill="white" transform="translate(0 0.967773)"/>
</clipPath>
</defs>
</svg>
