<svg width="24" height="25" viewBox="0 0 24 25" fill="none" xmlns="http://www.w3.org/2000/svg">
<path d="M21 5.46777H3C2.80109 5.46777 2.61032 5.54679 2.46967 5.68744C2.32902 5.8281 2.25 6.01886 2.25 6.21777V18.9678C2.25 19.3656 2.40804 19.7471 2.68934 20.0284C2.97064 20.3097 3.35218 20.4678 3.75 20.4678H20.25C20.6478 20.4678 21.0294 20.3097 21.3107 20.0284C21.592 19.7471 21.75 19.3656 21.75 18.9678V6.21777C21.75 6.01886 21.671 5.8281 21.5303 5.68744C21.3897 5.54679 21.1989 5.46777 21 5.46777ZM19.0716 6.96777L12 13.4506L4.92844 6.96777H19.0716ZM20.25 18.9678H3.75V7.92309L11.4928 15.0209C11.6312 15.1479 11.8122 15.2184 12 15.2184C12.1878 15.2184 12.3688 15.1479 12.5072 15.0209L20.25 7.92309V18.9678Z" fill="#444444"/>
</svg>
