<svg width="34" height="35" viewBox="0 0 34 35" fill="none" xmlns="http://www.w3.org/2000/svg">
<g id="FacebookLogo">
<path id="Vector" d="M17 4.15527C14.2682 4.15527 11.5976 4.96536 9.32619 6.4831C7.05474 8.00084 5.28436 10.1581 4.23892 12.682C3.19348 15.2059 2.91995 17.9831 3.45291 20.6625C3.98587 23.3418 5.30138 25.803 7.23309 27.7347C9.16481 29.6664 11.626 30.9819 14.3053 31.5149C16.9847 32.0478 19.7619 31.7743 22.2858 30.7289C24.8097 29.6834 26.9669 27.913 28.4847 25.6416C30.0024 23.3701 30.8125 20.6996 30.8125 17.9678C30.8086 14.3057 29.3522 10.7946 26.7626 8.20513C24.1731 5.61562 20.6621 4.15914 17 4.15527ZM18.0625 29.6061V21.1553H21.25C21.5318 21.1553 21.802 21.0433 22.0013 20.8441C22.2006 20.6448 22.3125 20.3746 22.3125 20.0928C22.3125 19.811 22.2006 19.5407 22.0013 19.3415C21.802 19.1422 21.5318 19.0303 21.25 19.0303H18.0625V15.8428C18.0625 15.2792 18.2864 14.7387 18.6849 14.3402C19.0834 13.9417 19.6239 13.7178 20.1875 13.7178H22.3125C22.5943 13.7178 22.8645 13.6058 23.0638 13.4066C23.2631 13.2073 23.375 12.9371 23.375 12.6553C23.375 12.3735 23.2631 12.1032 23.0638 11.904C22.8645 11.7047 22.5943 11.5928 22.3125 11.5928H20.1875C19.0603 11.5928 17.9793 12.0405 17.1823 12.8376C16.3853 13.6346 15.9375 14.7156 15.9375 15.8428V19.0303H12.75C12.4682 19.0303 12.198 19.1422 11.9987 19.3415C11.7994 19.5407 11.6875 19.811 11.6875 20.0928C11.6875 20.3746 11.7994 20.6448 11.9987 20.8441C12.198 21.0433 12.4682 21.1553 12.75 21.1553H15.9375V29.6061C12.9423 29.3327 10.1678 27.9151 8.19113 25.6483C6.21445 23.3814 5.18776 20.4398 5.32461 17.4352C5.46146 14.4307 6.75133 11.5946 8.9259 9.51679C11.1005 7.43901 13.9924 6.27953 17 6.27953C20.0077 6.27953 22.8995 7.43901 25.0741 9.51679C27.2487 11.5946 28.5385 14.4307 28.6754 17.4352C28.8123 20.4398 27.7856 23.3814 25.8089 25.6483C23.8322 27.9151 21.0577 29.3327 18.0625 29.6061Z" fill="#444444"/>
</g>
</svg>
