<svg width="60" height="61" viewBox="0 0 60 61" fill="none" xmlns="http://www.w3.org/2000/svg">
<path d="M16.5892 56.5083C15.5871 56.5083 14.6261 56.1102 13.9175 55.4016C13.2089 54.693 12.8108 53.732 12.8108 52.7299V40.8434C12.8108 40.6284 12.8962 40.4221 13.0483 40.2701C13.2003 40.118 13.4066 40.0326 13.6216 40.0326C13.8367 40.0326 14.0429 40.118 14.195 40.2701C14.347 40.4221 14.4324 40.6284 14.4324 40.8434V52.7299C14.4144 53.0237 14.4567 53.3181 14.5567 53.5949C14.6567 53.8718 14.8124 54.1252 15.014 54.3397C15.2157 54.5541 15.4591 54.725 15.7293 54.8418C15.9995 54.9586 16.2908 55.0188 16.5851 55.0188C16.8795 55.0188 17.1707 54.9586 17.4409 54.8418C17.7111 54.725 17.9546 54.5541 18.1562 54.3397C18.3579 54.1252 18.5135 53.8718 18.6136 53.5949C18.7136 53.3181 18.7559 53.0237 18.7378 52.7299V29.0542C18.7378 28.8392 18.8233 28.6329 18.9753 28.4809C19.1274 28.3288 19.3336 28.2434 19.5486 28.2434C19.7637 28.2434 19.9699 28.3288 20.122 28.4809C20.274 28.6329 20.3595 28.8392 20.3595 29.0542V52.7299C20.3595 53.7306 19.9625 54.6904 19.2557 55.3987C18.5488 56.1071 17.5899 56.5061 16.5892 56.5083Z" fill="#0A66C2"/>
<path d="M22.1838 42.6758C21.2713 42.6758 20.396 42.3139 19.75 41.6694C19.104 41.0249 18.74 40.1505 18.7378 39.238V29.0542C18.7378 28.8392 18.8233 28.633 18.9753 28.4809C19.1274 28.3288 19.3336 28.2434 19.5486 28.2434C19.7637 28.2434 19.9699 28.3288 20.122 28.4809C20.274 28.633 20.3595 28.8392 20.3595 29.0542V39.238C20.3595 39.7219 20.5517 40.1859 20.8938 40.528C21.2359 40.8701 21.6999 41.0623 22.1838 41.0623C22.6676 41.0623 23.1316 40.8701 23.4738 40.528C23.8159 40.1859 24.0081 39.7219 24.0081 39.238V25.9813C24.007 25.4918 23.9095 25.0074 23.7209 24.5558C23.5324 24.1041 23.2567 23.6941 22.9095 23.3492C22.5623 23.0042 22.1505 22.7312 21.6976 22.5456C21.2447 22.36 20.7597 22.2656 20.2703 22.2677H6.95676C5.97253 22.2699 5.02923 22.6618 4.33327 23.3578C3.63732 24.0537 3.24538 24.997 3.24324 25.9813V39.238C3.24324 39.7219 3.43545 40.1859 3.77757 40.528C4.1197 40.8701 4.58373 41.0623 5.06757 41.0623C5.55141 41.0623 6.01543 40.8701 6.35756 40.528C6.69969 40.1859 6.89189 39.7219 6.89189 39.238V29.0542C6.89189 28.8392 6.97731 28.633 7.12937 28.4809C7.28143 28.3288 7.48766 28.2434 7.7027 28.2434C7.91774 28.2434 8.12397 28.3288 8.27603 28.4809C8.42809 28.633 8.51351 28.8392 8.51351 29.0542V39.238C8.51351 40.1519 8.15046 41.0284 7.50422 41.6747C6.85798 42.3209 5.98149 42.684 5.06757 42.684C4.15364 42.684 3.27715 42.3209 2.63091 41.6747C1.98467 41.0284 1.62162 40.1519 1.62162 39.238V25.9813C1.62376 24.5669 2.18655 23.2112 3.18661 22.2111C4.18668 21.211 5.54245 20.6483 6.95676 20.6461H20.2703C21.6846 20.6483 23.0403 21.211 24.0404 22.2111C25.0405 23.2112 25.6033 24.5669 25.6054 25.9813V39.238C25.6033 40.1463 25.2426 41.0171 24.6019 41.6609C23.9611 42.3047 23.0921 42.6694 22.1838 42.6758Z" fill="#0A66C2"/>
<path d="M10.6622 56.5083C9.66148 56.5061 8.70252 56.1071 7.99568 55.3987C7.28885 54.6904 6.89189 53.7306 6.89189 52.7299V29.0542C6.89189 28.8392 6.97732 28.6329 7.12937 28.4809C7.28143 28.3288 7.48766 28.2434 7.7027 28.2434C7.91774 28.2434 8.12398 28.3288 8.27603 28.4809C8.42809 28.6329 8.51351 28.8392 8.51351 29.0542V52.7299C8.51351 53.2998 8.73989 53.8463 9.14284 54.2492C9.54579 54.6522 10.0923 54.8785 10.6622 54.8785C11.232 54.8785 11.7785 54.6522 12.1815 54.2492C12.5844 53.8463 12.8108 53.2998 12.8108 52.7299V40.8434C12.8108 40.6284 12.8962 40.4221 13.0483 40.2701C13.2003 40.118 13.4066 40.0326 13.6216 40.0326C13.8367 40.0326 14.0429 40.118 14.195 40.2701C14.347 40.4221 14.4324 40.6284 14.4324 40.8434V52.7299C14.4324 53.7306 14.0355 54.6904 13.3286 55.3987C12.6218 56.1071 11.6628 56.5061 10.6622 56.5083Z" fill="#0A66C2"/>
<path d="M13.6216 18.465C12.3387 18.465 11.0846 18.0846 10.0179 17.3719C8.95122 16.6591 8.11984 15.6461 7.62889 14.4608C7.13794 13.2756 7.00949 11.9714 7.25977 10.7131C7.51005 9.45485 8.12783 8.29907 9.03498 7.39192C9.94213 6.48476 11.0979 5.86699 12.3562 5.6167C13.6144 5.36642 14.9186 5.49488 16.1039 5.98582C17.2891 6.47677 18.3022 7.30816 19.0149 8.37486C19.7277 9.44155 20.1081 10.6956 20.1081 11.9786C20.1081 13.6989 19.4247 15.3487 18.2083 16.5652C16.9918 17.7816 15.3419 18.465 13.6216 18.465ZM13.6216 7.04882C12.6594 7.04882 11.7189 7.33414 10.9188 7.8687C10.1188 8.40326 9.49528 9.16305 9.12707 10.052C8.75886 10.9409 8.66252 11.9191 8.85023 12.8628C9.03794 13.8065 9.50128 14.6733 10.1816 15.3537C10.862 16.034 11.7288 16.4974 12.6725 16.6851C13.6162 16.8728 14.5944 16.7765 15.4833 16.4082C16.3723 16.04 17.1321 15.4165 17.6666 14.6165C18.2012 13.8164 18.4865 12.8759 18.4865 11.9137C18.4865 10.6234 17.9739 9.38605 17.0616 8.47371C16.1493 7.56137 14.9119 7.04882 13.6216 7.04882Z" fill="#0A66C2"/>
<path d="M55.1351 34.3083C54.8922 34.3098 54.65 34.2826 54.4135 34.2272C53.966 34.1223 53.5459 33.9234 53.1811 33.6439C52.8162 33.3643 52.515 33.0104 52.2973 32.6056L49.4595 27.3191C49.3573 27.1298 49.3345 26.9078 49.3961 26.7017C49.4577 26.4957 49.5986 26.3226 49.7878 26.2204C49.9771 26.1183 50.1991 26.0955 50.4052 26.1571C50.6112 26.2187 50.7843 26.3596 50.8865 26.5488L53.7568 31.8515C53.8676 32.0489 54.0186 32.221 54.1999 32.3565C54.3813 32.4921 54.589 32.5882 54.8097 32.6386C55.0305 32.689 55.2593 32.6926 55.4815 32.6492C55.7038 32.6058 55.9144 32.5164 56.1 32.3866C56.4342 32.1424 56.6624 31.7796 56.7378 31.3726C56.8131 30.9656 56.73 30.5452 56.5054 30.1975L51.3405 22.3731C50.6252 21.2859 49.6509 20.3933 48.5053 19.7757C47.3596 19.1581 46.0785 18.8348 44.777 18.8348C43.4755 18.8348 42.1944 19.1581 41.0488 19.7757C39.9031 20.3933 38.9289 21.2859 38.2135 22.3731L33.0973 30.1569C32.932 30.4272 32.8496 30.74 32.8601 31.0566C32.8706 31.3733 32.9737 31.6799 33.1565 31.9386C33.3393 32.1974 33.594 32.3969 33.8889 32.5125C34.1839 32.6282 34.5062 32.6549 34.8162 32.5893C35.0361 32.5362 35.2418 32.4362 35.4195 32.2963C35.5973 32.1564 35.7427 31.9798 35.8459 31.7785L38.5054 26.9137C38.6082 26.7262 38.7809 26.587 38.9859 26.5262C39.1909 26.4655 39.4116 26.4882 39.6 26.5893C39.7889 26.6908 39.9299 26.8629 39.9922 27.068C40.0545 27.2732 40.033 27.4946 39.9324 27.6839L37.2973 32.5893C37.0808 32.9836 36.7848 33.3285 36.4278 33.6022C36.0709 33.8759 35.661 34.0724 35.2241 34.1791C34.7872 34.2859 34.3328 34.3006 33.8899 34.2223C33.447 34.144 33.0252 33.9745 32.6513 33.7245C31.9534 33.2457 31.4702 32.5129 31.3051 31.6827C31.14 30.8526 31.3059 29.9907 31.7676 29.2812L36.8838 21.5056C37.7455 20.1962 38.9185 19.1211 40.2977 18.3763C41.6769 17.6316 43.2193 17.2405 44.7867 17.238C46.3541 17.2356 47.8977 17.622 49.2792 18.3625C50.6607 19.103 51.837 20.1746 52.7027 21.4812L57.8432 29.3461C58.1483 29.834 58.318 30.3943 58.335 30.9694C58.352 31.5446 58.2157 32.1139 57.94 32.619C57.6644 33.1241 57.2593 33.5467 56.7664 33.8436C56.2735 34.1404 55.7105 34.3008 55.1351 34.3083Z" fill="#0A66C2"/>
<path d="M55.4595 43.5921H34.0946C33.6185 43.5921 33.1506 43.4689 32.7363 43.2343C32.3221 42.9998 31.9756 42.6619 31.7307 42.2537C31.4858 41.8455 31.3507 41.3808 31.3387 40.9049C31.3267 40.429 31.4381 39.9581 31.6622 39.5381L39.3892 25.2516C39.4906 25.0627 39.6627 24.9217 39.8679 24.8594C40.073 24.7971 40.2944 24.8186 40.4838 24.9192C40.5784 24.9694 40.662 25.0378 40.73 25.1206C40.798 25.2033 40.8489 25.2987 40.8798 25.4012C40.9107 25.5038 40.921 25.6114 40.9101 25.7179C40.8992 25.8244 40.8673 25.9277 40.8162 26.0219L33.0892 40.3002C32.9966 40.4735 32.9505 40.6679 32.9555 40.8643C32.9605 41.0607 33.0164 41.2525 33.1177 41.4208C33.2191 41.5891 33.3623 41.7283 33.5336 41.8246C33.7048 41.921 33.8981 41.9713 34.0946 41.9705H55.4595C55.6571 41.9735 55.852 41.924 56.0244 41.8272C56.1967 41.7303 56.3403 41.5895 56.4405 41.4192C56.5404 41.2496 56.593 41.0564 56.593 40.8597C56.593 40.663 56.5404 40.4698 56.4405 40.3002L48.7378 26.0056C48.6749 25.9119 48.6323 25.8061 48.6127 25.6949C48.593 25.5838 48.5968 25.4698 48.6238 25.3602C48.6507 25.2506 48.7003 25.1478 48.7693 25.0584C48.8382 24.9691 48.9251 24.8951 49.0243 24.8413C49.1235 24.7874 49.2328 24.7549 49.3453 24.7457C49.4578 24.7366 49.571 24.751 49.6776 24.7881C49.7842 24.8252 49.8819 24.8841 49.9644 24.9612C50.0469 25.0382 50.1124 25.1316 50.1568 25.2354L57.8919 39.5219C58.1159 39.9419 58.2274 40.4128 58.2153 40.8887C58.2033 41.3646 58.0683 41.8293 57.8234 42.2375C57.5784 42.6457 57.232 42.9835 56.8177 43.2181C56.4034 43.4526 55.9355 43.5759 55.4595 43.5759V43.5921Z" fill="#0A66C2"/>
<path d="M47.4243 56.1029C46.5083 56.1029 45.6297 55.739 44.9819 55.0912C44.3342 54.4435 43.9703 53.5649 43.9703 52.6488V42.7813C43.9703 42.5662 44.0557 42.36 44.2077 42.2079C44.3598 42.0559 44.566 41.9705 44.7811 41.9705H50.0676C50.2826 41.9705 50.4888 42.0559 50.6409 42.2079C50.793 42.36 50.8784 42.5662 50.8784 42.7813V52.6569C50.8762 53.5716 50.5114 54.4481 49.8638 55.0941C49.2163 55.7401 48.339 56.1029 47.4243 56.1029ZM45.5919 43.5921V52.6569C45.5919 53.1429 45.7849 53.609 46.1286 53.9527C46.4722 54.2963 46.9383 54.4894 47.4243 54.4894C47.9103 54.4894 48.3764 54.2963 48.72 53.9527C49.0637 53.609 49.2568 53.1429 49.2568 52.6569V43.5921H45.5919Z" fill="#0A66C2"/>
<path d="M42.1622 56.1029C41.2461 56.1029 40.3675 55.739 39.7198 55.0912C39.072 54.4435 38.7081 53.5649 38.7081 52.6488V42.7813C38.7081 42.5662 38.7935 42.36 38.9456 42.2079C39.0976 42.0559 39.3039 41.9705 39.5189 41.9705H44.8135C45.0286 41.9705 45.2348 42.0559 45.3868 42.2079C45.5389 42.36 45.6243 42.5662 45.6243 42.7813V52.6569C45.62 53.5724 45.2534 54.4488 44.6046 55.0946C43.9558 55.7404 43.0776 56.1029 42.1622 56.1029ZM40.2973 43.5921V52.6569C40.3283 53.1229 40.5352 53.5597 40.8762 53.8788C41.2172 54.1979 41.6668 54.3754 42.1338 54.3754C42.6008 54.3754 43.0503 54.1979 43.3913 53.8788C43.7323 53.5597 43.9393 53.1229 43.9703 52.6569V43.5921H40.2973Z" fill="#0A66C2"/>
<path d="M44.7811 18.8056C43.4982 18.8056 42.2441 18.4252 41.1774 17.7124C40.1107 16.9997 39.2793 15.9867 38.7883 14.8014C38.2974 13.6162 38.1689 12.3119 38.4192 11.0537C38.6695 9.79542 39.2873 8.63964 40.1944 7.73249C41.1016 6.82534 42.2574 6.20756 43.5156 5.95728C44.7739 5.707 46.0781 5.83545 47.2634 6.3264C48.4486 6.81735 49.4617 7.64873 50.1744 8.71543C50.8871 9.78213 51.2676 11.0362 51.2676 12.3191C51.2676 14.0395 50.5842 15.6893 49.3677 16.9058C48.1513 18.1222 46.5014 18.8056 44.7811 18.8056ZM44.7811 7.45427C43.8189 7.45427 42.8783 7.73959 42.0783 8.27414C41.2783 8.8087 40.6547 9.56849 40.2865 10.4574C39.9183 11.3464 39.822 12.3245 40.0097 13.2682C40.1974 14.2119 40.6607 15.0787 41.3411 15.7591C42.0215 16.4395 42.8883 16.9028 43.832 17.0905C44.7757 17.2782 45.7538 17.1819 46.6428 16.8137C47.5317 16.4455 48.2915 15.8219 48.8261 15.0219C49.3606 14.2219 49.6459 13.2813 49.6459 12.3191C49.6459 11.0289 49.1334 9.79149 48.2211 8.87915C47.3087 7.96681 46.0713 7.45427 44.7811 7.45427Z" fill="#0A66C2"/>
</svg>
