<svg width="60" height="61" viewBox="0 0 60 61" fill="none" xmlns="http://www.w3.org/2000/svg">
<g clip-path="url(#clip0_66_306)">
<path d="M51.2133 9.63288C45.5471 3.96671 38.0134 0.846191 30 0.846191C23.1417 0.846191 16.6862 3.09897 11.3315 7.36091C10.9523 7.6628 10.8896 8.21485 11.1913 8.59408C11.4932 8.97342 12.0454 9.03602 12.4245 8.73425C17.4654 4.72201 23.5428 2.60133 30 2.60133C37.5446 2.60133 44.6375 5.53931 49.9722 10.874C55.3069 16.2087 58.2449 23.3017 58.2449 30.8462C58.2449 38.3907 55.3069 45.4837 49.9723 50.8185C44.6376 56.1532 37.5446 59.0912 30.0001 59.0912C22.4556 59.0912 15.3625 56.1531 10.0278 50.8185C4.69312 45.4837 1.75514 38.3908 1.75514 30.8462C1.75514 23.5919 4.50041 16.697 9.48535 11.4314C9.8186 11.0795 9.80339 10.524 9.45142 10.1908C9.09946 9.85754 8.54401 9.87275 8.21077 10.2247C2.91599 15.8176 0 23.1411 0 30.8462C0 38.8596 3.12052 46.3933 8.78669 52.0595C14.4529 57.7257 21.9866 60.8462 30 60.8462C38.0134 60.8462 45.5471 57.7257 51.2133 52.0595C56.8795 46.3933 60 38.8596 60 30.8462C60 22.8328 56.8795 15.2992 51.2133 9.63288Z" fill="#0A66C2"/>
<path d="M38.6017 51.1339C38.1559 51.3241 37.9486 51.8395 38.1387 52.2854C38.2809 52.619 38.6052 52.819 38.9463 52.819C39.0611 52.819 39.1779 52.7963 39.2901 52.7484C43.5316 50.9399 47.1429 47.9557 49.7339 44.1182C52.3907 40.1833 53.795 35.5937 53.7949 30.8458C53.7949 26.3058 52.5101 21.8902 50.0796 18.0764C49.8216 17.6716 49.3993 17.4095 48.921 17.3572C48.4396 17.3046 47.9673 17.4706 47.6249 17.813L44.2014 21.2364C43.8587 21.5792 43.8587 22.1348 44.2014 22.4774C44.5441 22.8202 45.0998 22.8202 45.4424 22.4774L48.7158 19.2042C50.8911 22.6933 52.0396 26.7135 52.0398 30.8459C52.0398 35.2425 50.7394 39.4923 48.2792 43.1361C45.8781 46.6927 42.5316 49.4584 38.6017 51.1339Z" fill="#0A66C2"/>
<path d="M20.4124 46.2666C20.0696 45.9238 19.514 45.9238 19.1714 46.2666L16.9669 48.4711C16.6245 48.8134 16.4584 49.2858 16.511 49.7672C16.5635 50.2457 16.8256 50.668 17.2303 50.9259C21.0441 53.3564 25.4598 54.6411 29.9999 54.6411C31.803 54.6411 33.6016 54.4368 35.3458 54.034C35.818 53.9249 36.1124 53.4537 36.0034 52.9814C35.8942 52.5091 35.4232 52.2144 34.9508 52.3238C33.3359 52.6968 31.6702 52.8859 29.9998 52.8859C25.8673 52.8859 21.847 51.7373 18.3578 49.5619L20.4121 47.5074C20.7551 47.1648 20.755 46.6092 20.4124 46.2666Z" fill="#0A66C2"/>
<path d="M42.7697 10.7664C38.956 8.33591 34.5403 7.05115 30.0001 7.05115C29.9998 7.05115 30.0005 7.05115 30.0001 7.05115C23.6608 7.05115 17.6891 9.53092 13.1869 14.0331C8.68453 18.5355 6.20499 24.5066 6.20511 30.8463C6.20511 35.3863 7.48975 39.802 9.92027 43.6157C10.1783 44.0205 10.6004 44.2827 11.0789 44.335C11.1376 44.3414 11.1961 44.3446 11.2544 44.3446C11.6737 44.3446 12.0745 44.1798 12.3751 43.8792L16.5884 39.666C16.9311 39.3232 16.9311 38.7676 16.5884 38.425C16.2457 38.0822 15.69 38.0822 15.3474 38.425L11.2842 42.488C9.10881 38.9989 7.96025 34.9786 7.96025 30.8461C7.96025 24.9752 10.2571 19.4449 14.4281 15.2741C18.599 11.1032 24.1292 8.80617 30.0001 8.80617C34.1323 8.80617 38.153 9.95497 41.6421 12.1302L38.8856 14.8867C38.5428 15.2294 38.5428 15.7851 38.8856 16.1277C39.2283 16.4704 39.784 16.4704 40.1266 16.1277L43.0332 13.221C43.3754 12.8788 43.5416 12.4063 43.4889 11.9248C43.4366 11.4466 43.1743 11.0243 42.7697 10.7664Z" fill="#0A66C2"/>
<path d="M40.3932 22.8755C39.8268 22.8755 39.2934 23.0182 38.8261 23.2692V18.8183C38.8261 16.9864 37.3358 15.4961 35.5039 15.4961C34.924 15.4961 34.3785 15.6458 33.9036 15.9081C33.6763 14.2959 32.2885 13.0515 30.6147 13.0515C28.7828 13.0515 27.2924 14.5419 27.2924 16.3738V17.9568C26.8253 17.7058 26.2918 17.563 25.7253 17.563C23.8934 17.563 22.4031 19.0534 22.4031 20.8853V27.6503C21.5377 26.5943 20.0996 26.1204 18.7107 26.5478C17.835 26.8174 17.1158 27.4234 16.6854 28.2542C16.2526 29.0897 16.1671 30.0765 16.4492 30.9666L18.3695 38.5116C18.3721 38.5217 18.3749 38.532 18.3779 38.5421C18.9311 40.4283 19.8854 42.2987 21.0652 43.8089C23.026 46.3188 26.3075 48.0318 30.0685 48.5089C30.767 48.5975 31.4611 48.6417 32.1482 48.6417C33.2052 48.6417 34.2455 48.537 35.2577 48.3279C36.1151 48.1509 36.9349 47.9007 37.6945 47.5844C41.4643 46.0144 43.715 42.3376 43.715 37.7492V26.1977C43.7155 24.3658 42.2251 22.8755 40.3932 22.8755ZM41.9603 37.7492C41.9603 41.6624 40.1597 44.6566 37.0202 45.9642C36.3637 46.2377 35.6514 46.4546 34.9032 46.6091C33.4228 46.9149 31.8706 46.9683 30.2897 46.7677C26.9846 46.3485 24.1266 44.8762 22.4487 42.7284C21.4052 41.3927 20.5597 39.7364 20.0669 38.0629C20.0361 37.9422 19.811 37.0574 18.1438 30.5073C18.139 30.4883 18.1335 30.4695 18.1274 30.4509C17.9791 29.9976 18.0217 29.4912 18.2443 29.0615C18.4563 28.6522 18.8055 28.3553 19.2276 28.2253C20.1066 27.9545 21.0259 28.4155 21.3365 29.2764L22.7522 35.059C22.86 35.4995 23.2856 35.7855 23.7345 35.7182C26.4075 35.3178 29.2193 37.1416 29.8745 39.6998C29.9947 40.1692 30.4724 40.4526 30.9423 40.3322C31.4117 40.2119 31.6949 39.7338 31.5747 39.2644C31.1481 37.5985 30.0564 36.1285 28.5009 35.1254C27.2031 34.2886 25.7285 33.869 24.2783 33.9111L24.1586 20.8854C24.1586 20.0213 24.8615 19.3183 25.7257 19.3183C26.5898 19.3183 27.2928 20.0213 27.2928 20.8854V30.1701C27.2928 30.6547 27.6857 31.0477 28.1703 31.0477C28.655 31.0477 29.0479 30.6547 29.0479 30.1701V20.8854V16.3739C29.0479 15.5098 29.7509 14.8068 30.615 14.8068C31.4791 14.8068 32.1821 15.5098 32.1821 16.3739V30.1698C32.1821 30.6545 32.575 31.0474 33.0597 31.0474C33.5443 31.0474 33.9373 30.6545 33.9373 30.1698V18.8183C33.9373 17.9542 34.6402 17.2512 35.5044 17.2512C36.3685 17.2512 37.0715 17.9542 37.0715 18.8183V30.1698C37.0715 30.6545 37.4644 31.0474 37.949 31.0474C38.4337 31.0474 38.8266 30.6545 38.8266 30.1698V26.1977C38.8266 25.3336 39.5296 24.6306 40.3937 24.6306C41.2578 24.6306 41.9608 25.3336 41.9608 26.1977V37.7492H41.9603Z" fill="#0A66C2"/>
</g>
<defs>
<clipPath id="clip0_66_306">
<rect width="60" height="60" fill="white" transform="translate(0 0.846191)"/>
</clipPath>
</defs>
</svg>
