<svg width="60" height="61" viewBox="0 0 60 61" fill="none" xmlns="http://www.w3.org/2000/svg">
<g clip-path="url(#clip0_66_255)">
<path d="M42.3596 0.967773C37.2916 0.974498 32.8994 4.4795 31.7684 9.41957C25.6938 6.49936 17.8697 8.90152 14.1662 14.3297C11.698 17.8166 11.6756 22.6794 14.4077 25.7416C15.1151 26.6046 15.3803 26.9284 14.8872 27.8835C13.4912 30.5883 13.6269 32.7401 16.4538 33.4948C17.1187 33.6567 17.6617 33.7762 18.0975 33.8684C18.8534 34.0352 19.354 34.1448 19.5595 34.2781C19.6666 34.3478 19.7525 34.4761 19.9505 35.014C20.3951 36.2319 19.882 37.9542 19.8771 37.9704C19.6143 38.9118 20.9816 39.3526 21.3054 38.41C21.3328 38.319 21.9729 36.1946 21.3527 34.501C20.7787 32.9282 20.278 32.8186 18.4188 32.4089C17.9904 32.3142 17.4575 32.1972 16.8074 32.0353C15.1885 31.6368 15.1885 30.658 16.2147 28.5622C17.1586 26.7341 16.3118 25.698 15.5634 24.7877C13.2247 22.1527 13.3219 18.1466 15.4027 15.1628C18.8099 10.1879 26.0325 8.09333 31.533 10.9587C31.1382 15.6112 33.8779 19.961 37.9263 21.7442C37.8333 22.1608 37.7084 22.5696 37.5527 22.9671C36.7694 25.1227 34.3623 25.7067 35.7358 28.5709C36.7632 30.6667 36.7582 31.6443 35.1418 32.044C34.493 32.2022 33.9588 32.3192 33.5304 32.4176C31.6712 32.8273 31.1719 32.9369 30.5965 34.5097C29.9739 36.2033 30.6165 38.3278 30.6439 38.4187C30.7721 38.8108 31.1941 39.0247 31.5863 38.8965C31.9683 38.7715 32.183 38.3667 32.0722 37.9803C32.0722 37.9629 31.5542 36.2369 32 35.0228C32.1967 34.4848 32.2827 34.3565 32.3897 34.2868C32.5965 34.1535 33.0958 34.0377 33.8517 33.8771C34.2876 33.7812 34.8305 33.6617 35.4955 33.5035C38.3236 32.7563 38.4593 30.597 37.0633 27.8922C36.5652 26.9371 36.8342 26.6133 37.5415 25.7503C37.9911 25.2024 38.549 24.5212 38.9425 23.5262C39.1044 23.1176 39.2387 22.6987 39.3447 22.2722C46.1203 24.3406 53.3405 18.946 53.2272 11.8379C53.2245 5.83661 48.3609 0.971883 42.3596 0.967773ZM42.3596 21.1975C37.1886 21.1907 32.9987 17.0002 32.9925 11.8292C33.5043 -0.598803 51.2148 -0.598803 51.7279 11.8292C51.7197 16.9992 47.5295 21.1876 42.3596 21.1938V21.1975Z" fill="#0A66C2"/>
<path d="M36.3523 44.0138C36.4947 43.9894 36.6408 43.9957 36.7807 44.0325C37.3697 44.1283 38.0035 44.157 38.7246 43.3762C38.9811 43.8108 39.2986 44.3637 39.8765 44.8556C40.6971 45.548 42.0744 45.6202 43.225 45.0312C45.3333 44.0897 45.9298 40.5631 44.0009 39.0999C43.3247 38.5793 42.4866 38.3863 41.7668 38.3328C42.2886 37.0787 41.9461 35.8858 40.1106 35.3876C38.0596 34.8596 36.4905 35.2631 34.5342 38.8745C33.787 40.2667 29.3587 42.4061 25.9728 44.02C22.3888 42.3115 18.1561 40.253 17.4102 38.8745C16.455 37.1074 15.5609 36.0514 14.597 35.5508C13.607 35.034 12.683 35.166 11.8337 35.3852C9.99569 35.8833 9.65697 37.0788 10.1787 38.334C9.26719 38.4012 8.51628 38.6578 7.93722 39.0974C6.01449 40.5631 6.606 44.0897 8.723 45.0312C9.87489 45.6202 11.2522 45.548 12.0716 44.8556C12.6494 44.3637 12.967 43.8108 13.2247 43.3762C13.9445 44.1532 14.5784 44.1234 15.1674 44.0325C15.3076 43.9957 15.454 43.9894 15.597 44.0138C15.8299 44.0748 16.0241 44.1732 16.6617 44.5057C17.3778 44.8793 18.5633 45.5019 20.8359 46.5679C16.4774 48.9962 12.4863 50.168 10.8612 50.1232C9.72671 50.1232 8.3133 50.1232 7.45156 51.0148C6.4354 51.9874 6.62219 54.3597 7.69314 55.2177C7.92975 55.4256 8.20234 55.5886 8.4976 55.6983C7.70435 57.6173 7.67322 60.2773 10.6482 60.8289C13.7365 61.4416 14.9719 59.9647 15.8872 57.6148C17.2408 54.1529 20.2619 52.1069 25.974 49.0012C32.5031 52.5328 34.7969 54.4867 36.0609 57.6148C36.9749 59.966 38.2115 61.4416 41.2986 60.8289C44.2736 60.2785 44.2437 57.6161 43.4492 55.6983C43.7447 55.5891 44.0174 55.4261 44.2537 55.2177C45.3258 54.3597 45.5126 51.9874 44.4952 51.0148C43.6335 50.1207 42.2201 50.1194 41.0869 50.1232C39.468 50.168 35.4694 48.9949 31.1108 46.5679C33.391 45.4932 34.5914 44.868 35.2851 44.5057C35.9251 44.1732 36.1194 44.0748 36.3523 44.0138ZM15.145 55.6423C13.9781 57.7742 14.0379 60.0357 10.9172 59.3595C10.2597 59.235 9.84999 58.9859 9.6632 58.5812C9.22983 57.6522 9.94837 56.0047 10.2335 55.5016C10.4409 55.1448 10.3197 54.6875 9.96294 54.4802C9.83343 54.405 9.68424 54.3704 9.53493 54.3808C8.87244 54.3945 8.28964 53.9985 8.27345 52.9873C8.24854 52.3336 8.45651 52.1156 8.52251 52.0471C8.94217 51.6113 10.0019 51.6101 10.8524 51.6125C13.0043 51.7657 18.5234 49.6836 22.5295 47.3536C23.1024 47.6176 23.7425 47.9053 24.3153 48.1793C19.5969 50.7271 16.2869 53.4083 15.145 55.6423ZM40.8515 51.6175C41.7232 51.6175 42.9685 51.5727 43.423 52.0521C43.7966 52.3498 43.7605 53.7071 43.2736 54.0919C43.034 54.2894 42.731 54.3938 42.4206 54.3858C41.839 54.3211 41.4131 55.0085 41.712 55.5003C42.0109 55.9922 42.717 57.6522 42.2848 58.5812C42.0981 58.9822 41.6871 59.2375 41.0296 59.3595C38.6374 59.8041 38.2613 58.9311 37.4357 57.0221C35.4432 50.7695 23.6129 46.4371 17.3504 43.1807C16.3305 42.6514 15.8784 42.3849 14.9258 42.558C14.5908 42.6141 14.5298 42.6228 14.2309 42.2604C13.9956 41.9752 13.6195 41.5979 13.0815 41.6378C12.4838 41.6851 12.1949 42.177 11.9147 42.6514C11.7067 43.0038 11.4714 43.3986 11.1052 43.7112C10.7952 43.9739 10.0729 44.0412 9.40168 43.6987C8.93844 43.4621 8.17756 42.8569 8.28092 41.4709C8.32202 40.9379 8.50881 40.5494 8.85251 40.2841C9.61338 39.6951 11.0069 39.786 11.4788 39.8719C11.8845 39.9473 12.2746 39.6795 12.3499 39.2738C12.3946 39.0331 12.3185 38.7858 12.1463 38.6117C11.8014 38.2618 11.373 37.5806 11.4602 37.2655C11.505 37.1024 11.7839 36.9405 12.2073 36.8322C13.2907 36.5532 14.3144 36.2892 16.0976 39.5855C17.1063 41.4535 21.3278 43.4596 25.786 45.5866C27.5705 46.4371 29.2554 47.2391 30.533 47.9526C34.6325 50.2402 38.9985 51.6125 40.8515 51.6175ZM29.4459 45.6987C28.8942 45.4222 28.3102 45.1395 27.7025 44.8494C31.9701 42.7897 35.0011 41.1521 35.8479 39.588C37.6299 36.2917 38.6536 36.5557 39.737 36.8347C40.1591 36.943 40.4381 37.1049 40.4842 37.2668C40.5738 37.5893 40.1342 38.2692 39.7968 38.6142C39.2874 39.1223 39.7569 40.0077 40.463 39.8744C41.4019 39.7163 43.6061 39.715 43.6621 41.4734C43.768 42.8594 43.0071 43.4658 42.5414 43.7012C41.8714 44.0437 41.1491 43.9764 40.8378 43.7137C40.4717 43.4048 40.2363 43.0063 40.0296 42.6539C39.7494 42.1795 39.4593 41.6876 38.8615 41.6403C38.3236 41.5992 37.9487 41.974 37.7134 42.2629C37.4133 42.6253 37.3535 42.6153 37.0185 42.5605C36.1642 42.3787 35.564 42.6626 34.5927 43.1832C33.8144 43.5879 32.3835 44.3351 29.4434 45.6987H29.4459Z" fill="#0A66C2"/>
<path d="M32.1058 29.551C34.0597 29.3318 35.0497 27.8922 35.0497 25.2721C35.0497 24.4067 34.6637 23.6022 33.929 22.9472C31.5367 20.9373 26.9715 20.8601 26.9939 26.0069C27.0151 28.3804 29.9341 29.7938 32.1058 29.551ZM29.0922 27.1637C28.6925 26.8063 28.4895 26.4166 28.4895 26.0069C28.5393 23.2249 29.807 23.2299 30.5455 23.1825C31.726 23.19 33.4919 23.9023 33.5554 25.2721C33.5554 27.5747 32.7385 27.9769 31.9365 28.0653C30.9926 28.1675 29.7946 27.7939 29.0922 27.1637Z" fill="#0A66C2"/>
<path d="M22.0327 21.7156C19.8896 21.4528 17.0366 22.9285 17.0391 25.2721C17.0391 27.8873 18.0353 29.3318 19.9842 29.551C21.4376 29.6815 22.8825 29.2225 23.994 28.277C24.7138 27.6332 25.0949 26.8487 25.0949 26.0069C25.0949 22.5711 23.1771 21.8439 22.0327 21.7156ZM22.9978 27.1637C22.2942 27.7926 21.0975 28.1724 20.1498 28.0653C19.3503 27.9769 18.5309 27.5747 18.5309 25.2721C18.5957 23.9023 20.3615 23.19 21.5421 23.1826C22.2805 23.2286 23.5482 23.2261 23.598 26.0069C23.6005 26.4166 23.3975 26.8063 22.9978 27.1637Z" fill="#0A66C2"/>
<path d="M22.1585 39.5108C22.5632 39.5909 22.9562 39.3277 23.0364 38.923L23.3502 37.3452C23.5133 36.3714 22.1049 36.0912 21.8845 37.0538L21.5707 38.6279C21.488 39.0321 21.7486 39.427 22.1529 39.5097L22.1585 39.5108Z" fill="#0A66C2"/>
<path d="M24.3688 36.8371C23.9588 36.7965 23.5931 37.0958 23.5519 37.5058L23.3564 39.4622C23.2892 40.4447 24.7138 40.5917 24.8508 39.6091L25.045 37.654C25.0852 37.2433 24.7849 36.8778 24.3742 36.8376C24.3723 36.8375 24.3706 36.8372 24.3688 36.8371Z" fill="#0A66C2"/>
<path d="M25.2256 37.9604V39.9167C25.2256 40.3294 25.5601 40.6639 25.9728 40.6639C26.3855 40.6639 26.72 40.3294 26.72 39.9167V37.9604C26.6888 36.9741 25.2555 36.9729 25.2256 37.9604Z" fill="#0A66C2"/>
<path d="M27.5755 36.7288C27.1649 36.7694 26.865 37.1351 26.9055 37.5457L27.101 39.4996C27.2255 40.4809 28.6551 40.3352 28.5879 39.3514L28.3986 37.3975C28.3576 36.9869 27.9915 36.6872 27.5809 36.7282C27.5791 36.7284 27.5772 36.7285 27.5755 36.7288Z" fill="#0A66C2"/>
<path d="M28.9826 39.0849C29.208 40.05 30.6127 39.7648 30.4483 38.7935L30.0598 36.8371C29.978 36.4324 29.5835 36.1706 29.1788 36.2525C28.774 36.3343 28.5123 36.7288 28.5941 37.1335L28.9826 39.0849Z" fill="#0A66C2"/>
<path d="M25.5519 29.1151C25.113 29.1201 24.7063 29.3457 24.4697 29.7153C23.8819 30.587 23.1808 31.8784 23.1808 33.1C23.192 34.1523 23.6939 34.9045 24.8408 34.9393C25.2767 34.9219 25.7125 34.9119 26.1558 34.9393C27.3663 34.9667 27.9142 34.1859 27.9242 33.1038C27.9242 31.8821 27.2231 30.5883 26.6353 29.7191C26.3992 29.3479 25.9917 29.1207 25.5519 29.1151ZM26.3787 33.4288C26.3301 33.444 26.2788 33.4491 26.2281 33.4437C25.7474 33.4051 25.2019 33.4512 24.7337 33.4325C24.5195 32.7476 24.9653 31.7402 25.5544 30.7888C26.1571 31.7663 26.5718 32.709 26.3787 33.4288Z" fill="#0A66C2"/>
<path d="M47.3419 6.84805C47.0503 6.55615 46.5772 6.55578 46.2853 6.84742C46.2851 6.84767 46.2849 6.8478 46.2847 6.84805L42.3595 10.7732L38.4344 6.84805C38.1325 6.56674 37.6597 6.58342 37.3784 6.88528C37.111 7.1722 37.111 7.61714 37.3784 7.90405L41.3035 11.8292L37.3784 15.7544C37.0887 16.0483 37.0922 16.5213 37.3862 16.811C37.6769 17.0973 38.1435 17.0977 38.4344 16.8116L42.3595 12.8865L46.2847 16.8116C46.5766 17.1035 47.0501 17.1035 47.3419 16.8116C47.6338 16.5197 47.6338 16.0463 47.3419 15.7544L43.4168 11.8292L47.3419 7.90405C47.6332 7.61228 47.6332 7.13982 47.3419 6.84805Z" fill="#0A66C2"/>
</g>
<defs>
<clipPath id="clip0_66_255">
<rect width="60" height="60" fill="white" transform="translate(0 0.967773)"/>
</clipPath>
</defs>
</svg>
