<svg width="60" height="61" viewBox="0 0 60 61" fill="none" xmlns="http://www.w3.org/2000/svg">
<g clip-path="url(#clip0_66_436)">
<path d="M35.3416 0.198139H12.9015C12.2586 0.198887 11.6422 0.455952 11.1876 0.912939C10.733 1.36993 10.4773 1.98952 10.4766 2.6358V3.81051H6.39844C5.72735 3.81129 5.08396 4.07962 4.60943 4.55664C4.1349 5.03365 3.86796 5.68041 3.86719 6.35501V56.1268C3.86799 56.8014 4.13494 57.4481 4.60946 57.9251C5.08399 58.4021 5.72736 58.6705 6.39844 58.6713H39.4942C39.5752 58.671 39.6558 58.6601 39.7341 58.639C40.7875 59.3517 41.9099 59.9556 43.0841 60.4416C43.3117 60.5352 43.5668 60.5352 43.7944 60.4416C46.8868 59.1693 49.7367 56.9704 52.0358 54.0821C54.2027 51.3601 55.6536 48.2772 56.1213 45.4016C56.1295 45.3513 56.1336 45.3004 56.1336 45.2495V34.5024C56.1336 34.2657 56.0451 34.0377 55.8855 33.8637C55.726 33.6896 55.5071 33.5823 55.2724 33.563C51.1482 33.2243 47.672 32.1089 44.3768 30.0675V6.35501C44.3761 5.6804 44.1091 5.03363 43.6346 4.5566C43.16 4.07958 42.5166 3.81126 41.8455 3.81051H37.7666V2.6358C37.7659 1.98952 37.5101 1.36993 37.0555 0.912939C36.6009 0.455952 35.9846 0.198887 35.3416 0.198139ZM12.3516 2.6358C12.3518 2.48924 12.4098 2.34875 12.5129 2.24512C12.616 2.14149 12.7557 2.08317 12.9015 2.08296H35.3416C35.4874 2.08317 35.6272 2.14149 35.7303 2.24512C35.8334 2.34875 35.8914 2.48924 35.8916 2.6358V6.87004C35.8914 7.01657 35.8333 7.15703 35.7302 7.26064C35.6272 7.36424 35.4874 7.42254 35.3416 7.42276H12.9015C12.7557 7.42257 12.616 7.36429 12.5128 7.26068C12.4097 7.15707 12.3517 7.01659 12.3514 6.87004L12.3516 2.6358ZM54.2586 45.1721C53.3536 50.5284 48.7492 56.1997 43.4393 58.5463C38.1293 56.1997 33.5252 50.5284 32.6198 45.1721V35.3593C36.6151 34.9178 40.1684 33.7168 43.4393 31.7036C46.7102 33.7168 50.2634 34.9178 54.2586 35.3593V45.1721ZM41.8455 5.69533C42.0195 5.69551 42.1863 5.76507 42.3094 5.88875C42.4324 6.01242 42.5016 6.18011 42.5018 6.35501V30.0675C39.2066 32.1089 35.7302 33.2246 31.6061 33.563C31.3714 33.5823 31.1525 33.6896 30.993 33.8637C30.8334 34.0377 30.7448 34.2657 30.7448 34.5024V36.8175H11.7764C11.5278 36.8175 11.2893 36.9168 11.1135 37.0936C10.9377 37.2703 10.8389 37.51 10.8389 37.7599C10.8389 38.0099 10.9377 38.2496 11.1135 38.4263C11.2893 38.6031 11.5278 38.7024 11.7764 38.7024H30.7448V43.3369H11.7764C11.5278 43.3369 11.2893 43.4362 11.1135 43.6129C10.9377 43.7896 10.8389 44.0294 10.8389 44.2793C10.8389 44.5292 10.9377 44.7689 11.1135 44.9457C11.2893 45.1224 11.5278 45.2217 11.7764 45.2217H30.7448V45.2504C30.7449 45.3014 30.749 45.3522 30.7571 45.4025C31.0245 46.947 31.5068 48.446 32.1899 49.8554H11.7764C11.5278 49.8554 11.2893 49.9547 11.1135 50.1314C10.9377 50.3082 10.8389 50.5479 10.8389 50.7978C10.8389 51.0478 10.9377 51.2875 11.1135 51.4642C11.2893 51.6409 11.5278 51.7402 11.7764 51.7402H33.0448C33.0971 51.7399 33.1493 51.7352 33.2009 51.7262C33.6978 52.5458 34.2462 53.3327 34.8427 54.0822C35.6133 55.0511 36.4611 55.9554 37.3775 56.7862H6.39773C6.22376 56.786 6.05699 56.7164 5.93397 56.5927C5.81095 56.4691 5.74173 56.3014 5.74148 56.1265V6.35501C5.7417 6.18012 5.81091 6.01245 5.93394 5.88878C6.05696 5.76512 6.22375 5.69554 6.39773 5.69533H10.4766V6.87004C10.4773 7.51631 10.7331 8.13589 11.1877 8.59286C11.6424 9.04982 12.2587 9.30686 12.9016 9.30758H35.3416C35.9845 9.30686 36.6009 9.04982 37.0555 8.59285C37.5101 8.13588 37.7659 7.5163 37.7666 6.87004V5.69533H41.8455ZM23.6453 25.4429C23.7896 25.5285 23.954 25.5736 24.1216 25.5736C24.2891 25.5736 24.4536 25.5285 24.5979 25.4429C26.7094 24.1908 32.1132 20.0059 31.7674 15.7348C31.6117 13.8117 30.4507 12.2479 28.7374 11.6542C27.1973 11.1208 25.4959 11.4756 24.1216 12.5755C22.7473 11.4755 21.0452 11.1203 19.5057 11.6543C17.7925 12.2481 16.6315 13.8117 16.4759 15.7348C16.13 20.0059 21.5339 24.1907 23.6453 25.4429ZM18.3446 15.8877C18.4404 14.704 19.1031 13.7875 20.117 13.4361C20.3924 13.3405 20.6817 13.2917 20.973 13.2918C21.8343 13.2918 22.7106 13.7123 23.4327 14.4988C23.5205 14.5945 23.627 14.6708 23.7456 14.723C23.8642 14.7752 23.9922 14.8021 24.1216 14.8021C24.2511 14.8021 24.3791 14.7752 24.4977 14.723C24.6163 14.6708 24.7228 14.5945 24.8106 14.4988C25.7753 13.4482 27.0149 13.0512 28.1262 13.436C29.1401 13.7874 29.8027 14.704 29.8986 15.8878C30.1083 18.476 26.7319 21.8269 24.1213 23.5232C21.5113 21.8264 18.135 18.4761 18.3446 15.8877ZM37.4044 31.2411C37.4044 31.491 37.3056 31.7307 37.1298 31.9075C36.954 32.0842 36.7155 32.1835 36.4669 32.1835H11.7764C11.5278 32.1835 11.2893 32.0842 11.1135 31.9075C10.9377 31.7307 10.8389 31.491 10.8389 31.2411C10.8389 30.9911 10.9377 30.7514 11.1135 30.5747C11.2893 30.398 11.5278 30.2987 11.7764 30.2987H36.4669C36.7155 30.2987 36.954 30.398 37.1298 30.5747C37.3056 30.7514 37.4044 30.9911 37.4044 31.2411ZM41.5399 47.6648L49.302 40.0939C49.4804 39.9199 49.7203 39.8242 49.9689 39.8279C50.2175 39.8317 50.4545 39.9345 50.6276 40.1139C50.8008 40.2933 50.896 40.5344 50.8923 40.7844C50.8885 41.0343 50.7862 41.2725 50.6078 41.4465L42.1351 49.711C41.9602 49.8816 41.726 49.977 41.4823 49.977C41.4689 49.977 41.4557 49.977 41.4423 49.9762C41.3149 49.9707 41.19 49.9392 41.0752 49.8836C40.9603 49.828 40.8579 49.7494 40.7743 49.6527L36.2157 44.3791C36.135 44.2856 36.0733 44.1772 36.0343 44.0598C35.9953 43.9424 35.9796 43.8185 35.9882 43.695C35.9968 43.5715 36.0296 43.451 36.0845 43.3403C36.1395 43.2295 36.2156 43.1307 36.3086 43.0496C36.4015 42.9684 36.5094 42.9064 36.6262 42.8672C36.7429 42.8279 36.8663 42.8122 36.9891 42.8209C37.1119 42.8295 37.2318 42.8624 37.342 42.9177C37.4521 42.9729 37.5504 43.0494 37.6311 43.1429L41.5399 47.6648Z" fill="#444444"/>
</g>
<defs>
<clipPath id="clip0_66_436">
<rect width="60" height="60.3141" fill="white" transform="translate(0 0.198139)"/>
</clipPath>
</defs>
</svg>
