<svg width="60" height="61" viewBox="0 0 60 61" fill="none" xmlns="http://www.w3.org/2000/svg">
<g clip-path="url(#clip0_66_148)">
<path d="M49.298 49.0049C45.177 44.5219 41.5733 40.4836 38.4418 36.8349C43.6832 29.7259 46.09 25.1177 46.0141 22.3393C45.849 16.3007 43.8246 10.5706 40.16 5.76766C40.1441 5.74563 40.1272 5.72453 40.1095 5.70426C37.6024 2.69395 33.9191 0.967773 30.0005 0.967773C26.0818 0.967773 22.3985 2.69406 19.8914 5.70449C19.8737 5.72477 19.857 5.74586 19.8409 5.76789C16.1762 10.5709 14.1519 16.3011 13.9869 22.3394C13.9043 25.3625 16.8831 30.4766 21.3571 36.5604C20.8601 37.1651 20.3974 37.7291 19.9636 38.2581C16.7449 42.1824 14.972 44.3441 10.7012 49.0049C10.4109 49.3217 10.3732 49.7954 10.6097 50.1543L17.4601 60.5465C17.6264 60.7988 17.9044 60.9555 18.2064 60.9673C18.2186 60.9678 18.2308 60.968 18.2429 60.968C18.5316 60.968 18.8051 60.8348 18.9831 60.6058C19.9829 59.3193 21.7287 57.2718 23.9391 54.6795C25.7796 52.5208 27.8515 50.0908 30.0063 47.4972C31.9719 49.8655 34.012 52.2749 36.0616 54.6789C38.2722 57.2714 40.0181 59.3193 41.018 60.6058C41.196 60.8348 41.4694 60.968 41.758 60.968C41.7702 60.968 41.7824 60.9678 41.7947 60.9673C42.0967 60.9555 42.3745 60.7988 42.5409 60.5465L49.3904 50.1556C49.6273 49.7961 49.5892 49.3217 49.298 49.0049ZM40.5413 9.70176C42.7821 13.5498 44.0166 17.878 44.1399 22.3905C44.182 23.9342 42.9983 27.4377 37.1918 35.3695C34.7757 32.5193 32.6612 29.9163 30.8255 27.5327C34.6599 22.3134 37.4034 17.9027 38.9806 14.422C39.7917 12.6317 40.3111 11.0642 40.5413 9.70176ZM29.642 25.9751C27.9114 23.6643 26.4594 21.57 25.2628 19.6645C24.6251 18.6489 24.0624 17.6888 23.5699 16.7786C25.4496 15.4764 27.7088 14.7633 30.0006 14.7633C32.0875 14.7633 34.1057 15.3341 35.876 16.4161C34.4687 18.9723 32.4579 22.1133 29.642 25.9751ZM21.41 6.81191C23.5579 4.28758 26.6807 2.84277 30.0005 2.84277C33.3189 2.84277 36.4404 4.28617 38.5881 6.80852C39.0645 8.09219 38.8904 10.4457 36.7488 14.753C34.7091 13.5319 32.3934 12.8884 30.0004 12.8884C27.4132 12.8884 24.8613 13.667 22.7124 15.0943C21.0236 11.526 20.6104 8.83727 21.41 6.81191ZM22.5122 53.4627C20.7942 55.4775 19.3552 57.1656 18.3161 58.4379L12.5772 49.7318C16.5309 45.3998 18.3001 43.2427 21.4133 39.447C21.7603 39.0239 22.1255 38.5788 22.5117 38.1085C24.4165 40.6293 26.5433 43.2926 28.7907 46.0257C26.5623 48.7124 24.4136 51.2328 22.5122 53.4627ZM41.685 58.4379C40.6459 57.1655 39.2065 55.4772 37.4884 53.4621C33.4457 48.7206 27.9089 42.2268 23.4687 36.2624C17.1014 27.7097 15.8173 23.998 15.8612 22.3905C15.9796 18.0568 17.1227 13.8933 19.1983 10.1615C19.515 12.9681 20.9814 16.372 23.6749 20.6615C27.9946 27.5407 35.5486 36.7898 47.4223 49.7344L41.685 58.4379Z" fill="#0A66C2"/>
</g>
<defs>
<clipPath id="clip0_66_148">
<rect width="60" height="60" fill="white" transform="translate(0 0.967773)"/>
</clipPath>
</defs>
</svg>
