<svg width="24" height="25" viewBox="0 0 24 25" fill="none" xmlns="http://www.w3.org/2000/svg">
<path d="M20.5153 10.6963L13.0153 3.62008C13.0116 3.61688 13.0082 3.61343 13.005 3.60976C12.7289 3.35864 12.369 3.21948 11.9958 3.21948C11.6225 3.21948 11.2627 3.35864 10.9866 3.60976L10.9763 3.62008L3.48469 10.6963C3.33187 10.8368 3.20989 11.0076 3.12646 11.1977C3.04303 11.3878 2.99997 11.5931 3 11.8007V20.4679C3 20.8657 3.15804 21.2472 3.43934 21.5285C3.72064 21.8099 4.10218 21.9679 4.5 21.9679H9C9.39782 21.9679 9.77936 21.8099 10.0607 21.5285C10.342 21.2472 10.5 20.8657 10.5 20.4679V15.9679H13.5V20.4679C13.5 20.8657 13.658 21.2472 13.9393 21.5285C14.2206 21.8099 14.6022 21.9679 15 21.9679H19.5C19.8978 21.9679 20.2794 21.8099 20.5607 21.5285C20.842 21.2472 21 20.8657 21 20.4679V11.8007C21 11.5931 20.957 11.3878 20.8735 11.1977C20.7901 11.0076 20.6681 10.8368 20.5153 10.6963ZM19.5 20.4679H15V15.9679C15 15.5701 14.842 15.1885 14.5607 14.9072C14.2794 14.6259 13.8978 14.4679 13.5 14.4679H10.5C10.1022 14.4679 9.72064 14.6259 9.43934 14.9072C9.15804 15.1885 9 15.5701 9 15.9679V20.4679H4.5V11.8007L4.51031 11.7913L12 4.71789L19.4906 11.7895L19.5009 11.7988L19.5 20.4679Z" fill="#444444"/>
</svg>
