<svg width="34" height="35" viewBox="0 0 34 35" fill="none" xmlns="http://www.w3.org/2000/svg">
<path d="M17.0001 11.5928C15.7392 11.5928 14.5067 11.9667 13.4583 12.6672C12.41 13.3676 11.5929 14.3633 11.1104 15.5282C10.6279 16.693 10.5016 17.9748 10.7476 19.2115C10.9936 20.4481 11.6007 21.584 12.4923 22.4756C13.3838 23.3671 14.5198 23.9743 15.7564 24.2203C16.993 24.4663 18.2748 24.34 19.4397 23.8575C20.6046 23.375 21.6002 22.5579 22.3007 21.5095C23.0012 20.4612 23.3751 19.2286 23.3751 17.9678C23.3733 16.2776 22.7011 14.6571 21.506 13.4619C20.3108 12.2667 18.6903 11.5945 17.0001 11.5928ZM17.0001 22.2178C16.1595 22.2178 15.3378 21.9685 14.6389 21.5015C13.94 21.0345 13.3953 20.3708 13.0736 19.5942C12.7519 18.8176 12.6678 17.9631 12.8318 17.1386C12.9957 16.3142 13.4005 15.5569 13.9949 14.9626C14.5893 14.3682 15.3465 13.9634 16.171 13.7994C16.9954 13.6354 17.8499 13.7196 18.6265 14.0413C19.4031 14.363 20.0668 14.9077 20.5338 15.6066C21.0008 16.3055 21.2501 17.1272 21.2501 17.9678C21.2501 19.0949 20.8023 20.1759 20.0053 20.973C19.2083 21.77 18.1273 22.2178 17.0001 22.2178ZM23.3751 4.15527H10.6251C8.65319 4.15738 6.76266 4.94165 5.36831 6.336C3.97397 7.73034 3.1897 9.62087 3.18759 11.5928V24.3428C3.1897 26.3147 3.97397 28.2052 5.36831 29.5996C6.76266 30.9939 8.65319 31.7782 10.6251 31.7803H23.3751C25.347 31.7782 27.2375 30.9939 28.6319 29.5996C30.0262 28.2052 30.8105 26.3147 30.8126 24.3428V11.5928C30.8105 9.62087 30.0262 7.73034 28.6319 6.336C27.2375 4.94165 25.347 4.15738 23.3751 4.15527ZM28.6876 24.3428C28.6876 25.7517 28.1279 27.103 27.1316 28.0993C26.1353 29.0956 24.7841 29.6553 23.3751 29.6553H10.6251C9.21613 29.6553 7.86487 29.0956 6.86859 28.0993C5.8723 27.103 5.31259 25.7517 5.31259 24.3428V11.5928C5.31259 10.1838 5.8723 8.83256 6.86859 7.83627C7.86487 6.83998 9.21613 6.28027 10.6251 6.28027H23.3751C24.7841 6.28027 26.1353 6.83998 27.1316 7.83627C28.1279 8.83256 28.6876 10.1838 28.6876 11.5928V24.3428ZM25.5001 11.0615C25.5001 11.3767 25.4066 11.6849 25.2315 11.947C25.0564 12.2091 24.8075 12.4133 24.5162 12.534C24.225 12.6546 23.9046 12.6861 23.5954 12.6247C23.2863 12.5632 23.0023 12.4114 22.7794 12.1885C22.5565 11.9656 22.4047 11.6816 22.3432 11.3724C22.2817 11.0633 22.3133 10.7428 22.4339 10.4516C22.5545 10.1604 22.7588 9.91149 23.0209 9.73637C23.283 9.56124 23.5911 9.46777 23.9063 9.46777C24.329 9.46777 24.7344 9.63569 25.0333 9.93457C25.3322 10.2335 25.5001 10.6388 25.5001 11.0615Z" fill="#444444"/>
</svg>
