<svg width="60" height="61" viewBox="0 0 60 61" fill="none" xmlns="http://www.w3.org/2000/svg">
<g clip-path="url(#clip0_66_428)">
<path d="M59.5901 36.7938C59.374 36.4418 58.9984 36.2315 58.5853 36.2315H58.376L49.9071 17.5737H51.8898C53.2187 17.5737 54.2999 16.4925 54.2999 15.1636C54.2999 13.8347 53.2187 12.7535 51.8898 12.7535H32.6078V9.5801C33.8693 8.73588 34.702 7.29846 34.702 5.6698C34.702 3.07714 32.5926 0.967773 29.9999 0.967773C27.4073 0.967773 25.2979 3.07714 25.2979 5.6698C25.2979 7.29846 26.1304 8.73588 27.392 9.5801V12.7534H8.10993C6.78091 12.7534 5.69986 13.8346 5.69986 15.1635C5.69986 16.4924 6.78103 17.5736 8.10993 17.5736H10.0926L1.62374 36.2314H1.41444C1.00135 36.2314 0.625769 36.4417 0.409676 36.7937C0.193583 37.1457 0.176239 37.5759 0.363387 37.9445L1.89409 40.9572C2.4867 42.1238 3.66783 42.8486 4.97646 42.8486H18.519C19.8276 42.8486 21.0086 42.1239 21.6014 40.9572L23.1319 37.9447C23.3192 37.5764 23.302 37.1463 23.086 36.794C22.8699 36.4419 22.4942 36.2315 22.081 36.2315H21.8718L13.4029 17.5737H27.3919V50.4635H21.0325C19.4714 50.4635 18.2013 51.7335 18.2013 53.2947V54.8337H16.793C15.2319 54.8337 13.9618 56.1038 13.9618 57.6649V60.0858C13.9618 60.5729 14.3566 60.9678 14.8437 60.9678H45.156C45.6431 60.9678 46.0379 60.573 46.0379 60.0858V57.6649C46.0379 56.1038 44.7679 54.8337 43.2067 54.8337H41.7985V53.2947C41.7985 51.7335 40.5284 50.4635 38.9672 50.4635H32.6078V24.9949C32.6078 24.5079 32.213 24.113 31.7259 24.113C31.2387 24.113 30.8439 24.5078 30.8439 24.9949V50.4633H29.1556V16.6917C29.1556 16.2047 28.7608 15.8098 28.2736 15.8098H8.10993C7.75357 15.8098 7.46365 15.5199 7.46365 15.1635C7.46365 14.8071 7.75357 14.5172 8.10993 14.5172H28.2738C28.7609 14.5172 29.1557 14.1224 29.1557 13.6352V10.2967C29.1886 10.3027 29.2219 10.3071 29.2551 10.3124C29.272 10.3151 29.2887 10.3179 29.3055 10.3204C29.3621 10.3287 29.419 10.3358 29.4761 10.3422C29.4972 10.3445 29.5183 10.3472 29.5395 10.3492C29.5932 10.3544 29.6471 10.3581 29.701 10.3615C29.7247 10.363 29.7482 10.3651 29.772 10.3662C29.8391 10.3694 29.9064 10.3709 29.9737 10.3713C29.9825 10.3713 29.991 10.3721 29.9998 10.3721C30.0086 10.3721 30.0173 10.3715 30.0259 10.3713C30.0932 10.371 30.1605 10.3695 30.2276 10.3662C30.2514 10.365 30.275 10.3629 30.2986 10.3615C30.3525 10.3581 30.4065 10.3544 30.4601 10.3492C30.4813 10.3471 30.5024 10.3445 30.5236 10.3422C30.5807 10.3358 30.6375 10.3288 30.6941 10.3205C30.711 10.318 30.7278 10.3152 30.7445 10.3125C30.7776 10.3072 30.811 10.3028 30.8439 10.2968V13.6354C30.8439 14.1224 31.2387 14.5173 31.7259 14.5173H51.8897C52.2461 14.5173 52.536 14.8072 52.536 15.1636C52.536 15.52 52.2461 15.8099 51.8897 15.8099H31.726C31.2388 15.8099 30.844 16.2047 30.844 16.6918V20.8143C30.844 21.3013 31.2388 21.6962 31.726 21.6962C32.2131 21.6962 32.6079 21.3014 32.6079 20.8143V17.5737H46.5969L38.128 36.2314H37.9189C37.5057 36.2314 37.13 36.4418 36.9139 36.7939C36.6979 37.1462 36.6807 37.5764 36.8678 37.9445L38.3985 40.9572C38.9911 42.1238 40.1723 42.8486 41.4809 42.8486H55.0234C56.332 42.8486 57.513 42.1239 58.1058 40.9572L59.6366 37.9443C59.8236 37.576 59.8063 37.1458 59.5901 36.7938ZM38.9673 52.2272C39.5559 52.2272 40.0347 52.7061 40.0347 53.2946V54.8336H26.5403C26.0532 54.8336 25.6584 55.2284 25.6584 55.7156C25.6584 56.2026 26.0532 56.5975 26.5403 56.5975H43.2067C43.7952 56.5975 44.274 57.0763 44.274 57.6649V59.2039H15.7257V57.6649C15.7257 57.0763 16.2045 56.5975 16.793 56.5975H22.4472C22.9344 56.5975 23.3292 56.2027 23.3292 55.7156C23.3292 55.2285 22.9344 54.8336 22.4472 54.8336H19.9651V53.2946C19.9651 52.706 20.4439 52.2272 21.0324 52.2272H38.9673ZM20.0288 40.1584C19.7385 40.7298 19.16 41.0847 18.519 41.0847H4.97658C4.33557 41.0847 3.75701 40.7298 3.46674 40.1584L2.36776 37.9953H21.1278L20.0288 40.1584ZM19.9454 36.2314H3.55018L11.7478 18.1712L19.9454 36.2314ZM31.3032 8.30229C31.2711 8.31823 31.2386 8.33335 31.2061 8.34811C31.1896 8.35561 31.1732 8.36346 31.1565 8.37061C31.1197 8.38643 31.0825 8.40108 31.0452 8.41538C31.0166 8.42627 30.9877 8.4367 30.9586 8.44678C30.9281 8.45745 30.8974 8.46811 30.8664 8.47772C30.8383 8.48639 30.8097 8.49413 30.7812 8.50198C30.7597 8.50795 30.7381 8.51405 30.7163 8.51956C30.6869 8.52694 30.6571 8.53362 30.6274 8.54018C30.6056 8.54487 30.5838 8.54956 30.562 8.55377C30.5328 8.5594 30.5036 8.56467 30.4741 8.56948C30.4498 8.57346 30.4254 8.57686 30.4011 8.58014C30.3739 8.58389 30.3467 8.58764 30.3193 8.59057C30.2889 8.59385 30.2582 8.5962 30.2276 8.59854C30.2056 8.6003 30.1837 8.60241 30.1616 8.60358C30.108 8.60651 30.0542 8.60827 30 8.60827C29.9459 8.60827 29.892 8.60651 29.8384 8.60358C29.8163 8.60241 29.7944 8.6003 29.7725 8.59854C29.7419 8.5962 29.7113 8.59385 29.6808 8.59057C29.6534 8.58764 29.6262 8.58389 29.599 8.58014C29.5747 8.57686 29.5503 8.57334 29.526 8.56948C29.4966 8.56467 29.4673 8.5594 29.4381 8.55377C29.4162 8.54956 29.3944 8.54487 29.3727 8.54018C29.343 8.53374 29.3132 8.52706 29.2838 8.51956C29.2621 8.51405 29.2406 8.50795 29.2189 8.50198C29.1904 8.49413 29.1618 8.48639 29.1337 8.47772C29.1027 8.46811 29.0722 8.45745 29.0415 8.44678C29.0124 8.4367 28.9834 8.42639 28.9549 8.41538C28.9176 8.40108 28.8804 8.38643 28.8436 8.37061C28.8269 8.36346 28.8105 8.35561 28.794 8.34811C28.7615 8.33335 28.729 8.31835 28.6969 8.30229C27.729 7.82112 27.0619 6.8221 27.0619 5.6698C27.0619 4.04968 28.3799 2.73156 30.0002 2.73156C31.6204 2.73156 32.9384 4.04968 32.9384 5.6698C32.9382 6.8221 32.2713 7.82112 31.3032 8.30229ZM48.2521 18.1712L56.4497 36.2314H40.0544L48.2521 18.1712ZM56.5331 40.1584C56.2428 40.7298 55.6643 41.0847 55.0233 41.0847H41.4808C40.8398 41.0847 40.2612 40.7298 39.9709 40.1584L38.8719 37.9953H57.632L56.5331 40.1584Z" fill="#0A66C2"/>
</g>
<defs>
<clipPath id="clip0_66_428">
<rect width="60" height="60" fill="white" transform="translate(0 0.967773)"/>
</clipPath>
</defs>
</svg>
