<svg width="60" height="61" viewBox="0 0 60 61" fill="none" xmlns="http://www.w3.org/2000/svg">
<path d="M25.793 60.0411L23.5195 49.0385C23.5078 48.9678 23.5078 48.8853 23.5195 48.8146C24.9258 40.6392 19.5352 36.0921 19.4766 36.045C19.4297 35.9979 19.3828 35.9508 19.3477 35.8919L13.7344 26.6798C13.207 25.8081 12.1055 25.5254 11.2266 26.0319C10.3828 26.5149 10.0547 27.5869 10.4766 28.4586L14.7891 37.4822C14.8711 37.6471 14.8711 37.8356 14.7891 37.9887C14.707 38.1419 14.5664 38.2714 14.3906 38.3068C12.4219 38.7662 10.582 38.2125 9.07031 36.6929C7.95703 35.5856 7.41797 34.3487 7.39453 34.2898C7.38281 34.2662 7.38281 34.2544 7.37109 34.2309L4.94531 26.4678C4.93359 26.4207 4.92188 26.3735 4.92188 26.3382C4.73438 23.5227 3.83203 18.74 2.21484 17.8801C2.00391 17.7741 1.67578 17.6563 1.17188 17.8683V26.2322L3.67969 38.7898L14.8125 51.2767C14.8945 51.3709 14.9531 51.5005 14.9648 51.6301L15.4922 59.8762L14.3203 59.9468L13.8047 51.901L2.69531 39.4612C2.625 39.3788 2.57812 39.2845 2.55469 39.1785L0.0117188 26.4089C0 26.3735 0 26.3264 0 26.2911V17.5149C0 17.3029 0.105469 17.1144 0.292969 17.0083C1.38281 16.3604 2.23828 16.5607 2.76562 16.8434C5.41406 18.2453 6.01172 25.1013 6.08203 26.1851L8.46094 33.8775C8.625 34.2426 10.207 37.5411 13.3711 37.3055L9.41016 28.9887C8.73047 27.5515 9.26953 25.8199 10.6406 25.0306C12.0703 24.206 13.875 24.6654 14.7305 26.079L20.2969 35.2086C20.625 35.5031 21.9023 36.6929 23.0391 38.7426C24.2109 40.8631 25.4531 44.35 24.6914 48.9089L26.9414 59.8055L25.793 60.0411Z" fill="#444444"/>
<path d="M34.207 60.0411L33.0586 59.8055L35.3086 48.9089C34.5469 44.35 35.7891 40.8631 36.9609 38.7426C38.0977 36.6929 39.375 35.5031 39.7031 35.2086L45.2695 26.079C46.1367 24.6654 47.9297 24.1942 49.3594 25.0306C50.7305 25.8199 51.2695 27.5633 50.5898 28.9887L46.6172 37.3055C49.7812 37.5411 51.3633 34.2426 51.5273 33.8775L53.9062 26.1851C53.9883 25.1013 54.5859 18.2453 57.2227 16.8434C57.75 16.5607 58.6055 16.3604 59.6953 17.0083C59.8711 17.1144 59.9883 17.3029 59.9883 17.5149V26.3029C59.9883 26.3382 59.9883 26.3853 59.9766 26.4207L57.4453 39.1903C57.4219 39.2963 57.375 39.3905 57.3047 39.473L46.1953 51.9128L45.6797 59.9586L44.5078 59.8879L45.0352 51.6419C45.0469 51.5123 45.0938 51.3827 45.1875 51.2885L56.3203 38.8015L58.8281 26.244V17.8801C58.3242 17.668 57.9961 17.7741 57.7852 17.8919C56.1797 18.7518 55.2656 23.5345 55.0781 26.35C55.0781 26.3971 55.0664 26.4442 55.0547 26.4796L52.6406 34.2662C52.6289 34.2898 52.6289 34.3015 52.6172 34.3251C52.5938 34.3722 52.0547 35.6091 50.9414 36.7282C49.418 38.2479 47.5781 38.8015 45.6211 38.3421C45.4453 38.3068 45.3047 38.189 45.2227 38.0241C45.1406 37.8591 45.1406 37.6707 45.2227 37.5175L49.5352 28.494C49.957 27.6104 49.6289 26.5502 48.7852 26.0673C47.9062 25.5607 46.8047 25.8434 46.2773 26.7152L40.6641 35.9272C40.6289 35.9861 40.582 36.0332 40.5352 36.0803C40.5234 36.0921 39.1523 37.2466 37.9687 39.3906C36.3984 42.2531 35.9062 45.4337 36.4922 48.85C36.5039 48.9207 36.5039 49.0031 36.4922 49.0738L34.207 60.0411Z" fill="#444444"/>
<path d="M33.6328 32.4992C33.1172 32.4992 32.6133 32.4285 32.168 32.2754L32.5313 31.1563C32.8711 31.2623 33.2461 31.3212 33.6445 31.3212C37.3242 31.3212 38.1914 27.9403 38.2266 27.7989C38.2852 27.5751 38.4727 27.3984 38.707 27.3513C43.7578 26.5267 44.0508 21.0136 44.0625 20.778C44.0742 20.5542 44.2031 20.3539 44.4023 20.2597C44.5078 20.2125 46.9922 19.0227 46.9922 15.9953C46.9922 13.0267 44.7539 12.2256 44.6602 12.1903C44.4258 12.1078 44.2734 11.8958 44.2617 11.6602C44.1445 8.8683 43.2422 6.88924 41.5781 5.80547C40.3594 5.00442 39.1875 4.99264 39.1758 4.99264C38.9297 4.99264 38.6953 4.82772 38.625 4.59212C38.5547 4.47432 37.4648 1.37615 34.1953 1.37615C31.1602 1.37615 30.6445 4.10913 30.5859 4.46254V29.3775C30.5859 29.4364 30.5742 29.4953 30.5625 29.5424C30.2578 30.5673 28.9922 32.511 26.3672 32.511C22.5703 32.511 21.1523 29.5306 20.7656 28.4704C18.4453 27.9874 16.6875 26.5502 15.6563 24.2885C15.0703 22.9926 14.8711 21.7675 14.8125 21.1903C13.9805 20.7073 11.8477 19.1523 11.8477 16.0188C11.8477 13.2741 13.4766 11.7898 14.6016 11.2479C14.8594 7.51359 16.4648 5.69945 17.8008 4.82772C18.8555 4.13269 19.8984 3.92065 20.4375 3.86175C20.9062 2.86044 22.4414 0.198139 25.8047 0.198139C26.5313 0.198139 27.2344 0.351281 27.8906 0.645783L27.4102 1.71777C26.8945 1.48217 26.3672 1.37615 25.8047 1.37615C22.5352 1.37615 21.4453 4.47432 21.3984 4.6039C21.3164 4.8395 21.0938 5.00442 20.8477 5.00442C20.6484 5.00442 16.0313 5.12222 15.7617 11.672C15.75 11.9193 15.5859 12.1314 15.3633 12.2021C15.2695 12.2374 13.0312 13.0385 13.0312 16.007C13.0312 19.0345 15.5156 20.2243 15.6328 20.2714C15.832 20.3657 15.9609 20.5659 15.9727 20.7898C15.9844 21.0254 16.2773 26.5385 21.3281 27.3631C21.5625 27.3984 21.75 27.5751 21.8086 27.8107C21.8438 27.9521 22.7109 31.333 26.3906 31.333C28.5586 31.333 29.2969 29.6484 29.4375 29.2832V4.4272C29.4375 4.40364 29.4375 4.38008 29.4375 4.35652C29.5898 2.90756 30.8203 0.198139 34.1953 0.198139C37.5586 0.198139 39.1055 2.86044 39.5625 3.86175C40.1133 3.93243 41.1445 4.14447 42.1992 4.82772C43.5352 5.69945 45.1406 7.51359 45.3984 11.2479C46.5234 11.7898 48.1523 13.2741 48.1523 16.0188C48.1523 19.1523 46.0078 20.7073 45.1875 21.1903C45.1289 21.7675 44.9297 22.9926 44.3438 24.2885C43.3125 26.5385 41.5547 27.9874 39.2344 28.4704C38.8477 29.5306 37.4297 32.4992 33.6328 32.4992Z" fill="#444444"/>
<path d="M25.3945 7.86699C25.3477 7.74919 24.2578 5.0162 20.8594 5.0162V3.83819C25.0781 3.83819 26.4375 7.30154 26.4961 7.4429L25.3945 7.86699Z" fill="#444444"/>
<path d="M18.75 16.9377C16.6406 16.9377 14.5781 14.3343 14.5781 11.6248H15.75C15.75 13.9809 17.3438 15.7597 18.75 15.7597V16.9377Z" fill="#444444"/>
<path d="M25.9336 13.7217C22.4766 13.7217 21.0117 9.78714 20.9414 9.62222L22.043 9.20992C22.0547 9.24526 23.2969 12.5437 25.9336 12.5437C28.2422 12.5437 29.4141 11.2714 29.4141 8.79762H30.5859C30.5859 11.8604 28.8867 13.7217 25.9336 13.7217Z" fill="#444444"/>
<path d="M17.3906 21.7439C16.1719 21.7439 15.2227 21.3788 15.1641 21.3552L15.5859 20.2597C15.6094 20.2714 17.5078 20.9782 19.1602 20.189C20.1445 19.7178 20.8594 18.7871 21.3047 17.4207L22.418 17.7858C21.8789 19.4704 20.9531 20.6484 19.6523 21.261C18.8789 21.6262 18.082 21.7439 17.3906 21.7439Z" fill="#444444"/>
<path d="M21.2109 28.5293V27.3513C24.2578 27.3513 25.0312 24.6065 25.043 24.583L26.168 24.901C25.8164 26.1615 24.375 28.5293 21.2109 28.5293Z" fill="#444444"/>
<path d="M30.5859 24.7008H29.4141C29.4141 23.2871 28.6523 21.8382 27.5625 21.3081C26.4961 20.7898 25.1953 21.1314 23.7773 22.2741L23.0508 21.3552C25.3125 19.5411 27.0352 19.7413 28.0781 20.2479C29.8125 21.0843 30.5859 23.1693 30.5859 24.7008Z" fill="#444444"/>
<path d="M34.6055 7.86699L33.5039 7.4429C33.5625 7.28976 34.9219 3.83819 39.1406 3.83819V5.0162C35.7422 5.00442 34.6172 7.83165 34.6055 7.86699Z" fill="#444444"/>
<path d="M41.25 16.9377V15.7597C42.6562 15.7597 44.25 13.9809 44.25 11.6248H45.4219C45.4219 14.3343 43.3594 16.9377 41.25 16.9377Z" fill="#444444"/>
<path d="M34.0664 13.7217C31.1133 13.7217 29.4141 11.8604 29.4141 8.79762H30.5859C30.5859 11.2714 31.7578 12.5437 34.0664 12.5437C36.7031 12.5437 37.9453 9.24526 37.957 9.20992L39.0586 9.62222C38.9883 9.78714 37.5234 13.7217 34.0664 13.7217Z" fill="#444444"/>
<path d="M42.6094 21.7439C41.9062 21.7439 41.1211 21.6262 40.3477 21.261C39.0586 20.6366 38.1328 19.4704 37.582 17.7858L38.6953 17.4207C39.1289 18.7871 39.8555 19.7178 40.8398 20.189C42.4922 20.9782 44.3906 20.2714 44.4141 20.2597L44.8359 21.3552C44.7773 21.3905 43.8398 21.7439 42.6094 21.7439Z" fill="#444444"/>
<path d="M38.7891 28.5293C35.625 28.5293 34.1836 26.1497 33.832 24.901L34.957 24.583C34.9922 24.689 35.7422 27.3513 38.7891 27.3513V28.5293Z" fill="#444444"/>
<path d="M30.5859 24.7008H29.4141C29.4141 23.1693 30.1875 21.0843 31.9219 20.2479C32.9648 19.7413 34.6875 19.5293 36.9492 21.3434L36.2227 22.2741C34.8047 21.1432 33.4922 20.7898 32.4375 21.3081C31.3477 21.8382 30.5859 23.2871 30.5859 24.7008Z" fill="#444444"/>
</svg>
