<svg width="24" height="25" viewBox="0 0 24 25" fill="none" xmlns="http://www.w3.org/2000/svg">
<path d="M20.8472 15.8235L16.4306 13.8444L16.4184 13.8388C16.1892 13.7407 15.939 13.7013 15.6907 13.7243C15.4424 13.7472 15.2037 13.8316 14.9963 13.97C14.9718 13.9861 14.9484 14.0037 14.9259 14.0225L12.6441 15.9678C11.1984 15.2656 9.70595 13.7844 9.00376 12.3575L10.9519 10.041C10.9706 10.0175 10.9884 9.99408 11.0053 9.96877C11.1407 9.76186 11.2229 9.52469 11.2445 9.27837C11.2661 9.03204 11.2264 8.78419 11.1291 8.55689V8.54564L9.14438 4.12158C9.0157 3.82464 8.79444 3.57728 8.51362 3.41643C8.2328 3.25557 7.9075 3.18985 7.58626 3.22908C6.31592 3.39624 5.14986 4.02011 4.30588 4.98417C3.4619 5.94822 2.99771 7.18654 3.00001 8.46783C3.00001 15.9116 9.05626 21.9678 16.5 21.9678C17.7813 21.9701 19.0196 21.5059 19.9837 20.662C20.9477 19.818 21.5716 18.6519 21.7388 17.3816C21.7781 17.0604 21.7125 16.7352 21.5518 16.4544C21.3911 16.1736 21.144 15.9523 20.8472 15.8235ZM16.5 20.4678C13.3185 20.4644 10.2682 19.199 8.01856 16.9493C5.76888 14.6996 4.50348 11.6494 4.50001 8.46783C4.49648 7.55235 4.82631 6.66689 5.42789 5.9768C6.02947 5.28672 6.86167 4.8392 7.76907 4.71783C7.7687 4.72157 7.7687 4.72534 7.76907 4.72908L9.73782 9.13533L7.80001 11.4547C7.78034 11.4773 7.76247 11.5015 7.74657 11.5269C7.60549 11.7434 7.52273 11.9926 7.5063 12.2505C7.48988 12.5084 7.54035 12.7661 7.65282 12.9988C8.5022 14.736 10.2525 16.4731 12.0084 17.3216C12.2428 17.433 12.502 17.4817 12.7608 17.463C13.0196 17.4443 13.2692 17.3587 13.485 17.2147C13.5091 17.1985 13.5322 17.181 13.5544 17.1622L15.8334 15.2178L20.2397 17.1913C20.2397 17.1913 20.2472 17.1913 20.25 17.1913C20.1301 18.0999 19.6833 18.9338 18.9931 19.5369C18.3028 20.14 17.4166 20.4709 16.5 20.4678Z" fill="#444444"/>
</svg>
