<svg width="60" height="61" viewBox="0 0 60 61" fill="none" xmlns="http://www.w3.org/2000/svg">
<path d="M44.0625 59.0928C44.58 59.0928 45 58.6728 45 58.1553V51.0396L51.3206 46.0859C52.1119 45.4559 53.1713 44.2203 53.5856 43.2378L58.0481 32.8634C58.0987 32.7471 58.125 32.6196 58.125 32.4921V23.4565C58.125 22.2903 56.8031 21.4296 55.5263 21.274C53.9438 21.0696 51.9544 21.9303 51.2044 24.9246C50.8181 26.479 50.7319 27.7934 50.655 28.9521C50.6194 29.4678 51.0094 29.9534 51.5269 29.9871C52.0444 30.0228 52.4887 29.6684 52.5206 29.1528C52.5975 27.994 52.6781 26.7696 53.025 25.3765C53.2613 24.4353 53.7675 23.2784 54.8494 23.134C55.5731 23.0309 56.1787 23.419 56.2781 23.5953L56.25 32.299L51.8606 42.5046C51.5869 43.159 50.7356 44.1546 50.1581 44.6159L43.4831 49.8471C43.2562 50.0234 43.125 50.2953 43.125 50.584V58.1553C43.125 58.6728 43.545 59.0928 44.0625 59.0928Z" fill="#0A66C2"/>
<path d="M15.9375 59.0928C15.42 59.0928 15 58.6728 15 58.1553V51.0396L8.67938 46.0859C7.88813 45.4559 6.82875 44.2203 6.41437 43.2378L1.95188 32.8634C1.90125 32.7471 1.875 32.6196 1.875 32.4921V23.4565C1.875 22.2903 3.19687 21.4296 4.47375 21.274C6.05625 21.0696 8.04562 21.9303 8.79562 24.9246C9.18187 26.479 9.26813 27.7934 9.345 28.9521C9.38063 29.4678 8.99062 29.9534 8.47312 29.9871C7.95563 30.0228 7.51125 29.6684 7.47938 29.1528C7.4025 27.994 7.32188 26.7696 6.975 25.3765C6.73875 24.4353 6.2325 23.2784 5.15062 23.134C4.42687 23.0309 3.82125 23.419 3.72188 23.5953L3.75 32.299L8.13938 42.5046C8.41313 43.159 9.26438 44.1546 9.84188 44.6159L16.5169 49.8471C16.7437 50.0234 16.875 50.2953 16.875 50.584V58.1553C16.875 58.6728 16.455 59.0928 15.9375 59.0928Z" fill="#0A66C2"/>
<path d="M27.1875 59.0927C26.67 59.0927 26.25 58.6727 26.25 58.1552V47.9121C26.25 43.9615 23.5219 40.5171 19.6144 39.5346C19.1119 39.409 18.8081 38.899 18.9338 38.3965C19.0594 37.8959 19.56 37.5846 20.0719 37.7159C24.8119 38.9084 28.125 43.1009 28.125 47.9121V58.1552C28.125 58.6727 27.705 59.0927 27.1875 59.0927Z" fill="#0A66C2"/>
<path d="M16.4288 42.9997C16.1888 42.9997 15.9487 42.9078 15.765 42.7259L7.53937 34.5134C7.36312 34.3372 7.26562 34.099 7.26562 33.8497C7.26562 33.6022 7.365 33.3622 7.53937 33.1859C10.1175 30.6078 13.2956 30.8253 16.2563 33.7859L20.4844 38.0047C20.85 38.3703 20.85 38.9647 20.4844 39.3303C20.1188 39.6978 19.5244 39.6959 19.1588 39.3322L14.9306 35.1134C13.0087 33.1915 11.2106 32.7847 9.585 33.9059L17.0888 41.3984C17.4544 41.764 17.4544 42.3584 17.0888 42.7259C16.9088 42.9078 16.6687 42.9997 16.4288 42.9997Z" fill="#0A66C2"/>
<path d="M32.8125 59.0927C32.295 59.0927 31.875 58.6727 31.875 58.1552V47.9121C31.875 43.1009 35.1881 38.9084 39.9281 37.7159C40.4362 37.5846 40.9388 37.8959 41.0663 38.3965C41.19 38.899 40.8862 39.409 40.3856 39.5346C36.4781 40.5171 33.75 43.9615 33.75 47.9121V58.1552C33.75 58.6727 33.33 59.0927 32.8125 59.0927Z" fill="#0A66C2"/>
<path d="M43.5713 42.9997C43.3313 42.9997 43.0913 42.9078 42.9075 42.7259C42.5419 42.3584 42.5419 41.7659 42.9075 41.3984L50.4113 33.9059C48.7875 32.7865 46.9875 33.1934 45.0656 35.1134L40.8375 39.3322C40.4719 39.6959 39.8775 39.6978 39.5119 39.3303C39.1463 38.9647 39.1463 38.3703 39.5119 38.0047L43.74 33.7859C46.7006 30.8253 49.8788 30.6078 52.4569 33.1859C52.6331 33.3622 52.7306 33.6003 52.7306 33.8497C52.7306 34.099 52.6313 34.3372 52.4569 34.5134L44.2313 42.7259C44.0513 42.9078 43.8113 42.9997 43.5713 42.9997Z" fill="#0A66C2"/>
<path d="M43.5713 42.9997C43.3313 42.9997 43.0913 42.9078 42.9075 42.7259C42.5419 42.3584 42.5419 41.7659 42.9075 41.3984L50.4113 33.9059C48.7875 32.7865 46.9875 33.1934 45.0656 35.1134L40.8375 39.3322C40.4719 39.6959 39.8775 39.6978 39.5119 39.3303C39.1463 38.9647 39.1463 38.3703 39.5119 38.0047L43.74 33.7859C46.7006 30.8253 49.8788 30.6078 52.4569 33.1859C52.6331 33.3622 52.7306 33.6003 52.7306 33.8497C52.7306 34.099 52.6313 34.3372 52.4569 34.5134L44.2313 42.7259C44.0513 42.9078 43.8113 42.9997 43.5713 42.9997Z" fill="#0A66C2"/>
<path d="M34.1231 24.3096C33.615 24.3096 33.1069 24.2684 32.5988 24.184C30.1725 23.7809 28.0463 22.4553 26.6119 20.449C25.1775 18.4428 24.6113 16.0015 25.0125 13.5753C25.2956 11.8803 26.9006 10.7271 28.5994 11.0121C30.2944 11.2934 31.4456 12.904 31.1625 14.599C31.05 15.274 31.1775 15.9734 31.515 16.564C31.7738 17.014 31.6181 17.5859 31.1681 17.8446C30.7238 18.0978 30.1481 17.9478 29.8875 17.4978C29.3344 16.534 29.13 15.3959 29.31 14.2934C29.4225 13.6165 28.9631 12.9734 28.2881 12.8609C27.6094 12.754 26.97 13.2059 26.8575 13.8828C26.5369 15.814 26.9888 17.7584 28.1325 19.3578C29.2763 20.9571 30.9713 22.0146 32.9025 22.3353C33.4331 22.4215 33.9713 22.4553 34.4963 22.4253C35.0231 22.414 35.4563 22.7965 35.4806 23.3121C35.5088 23.8296 35.1113 24.2703 34.5938 24.2984C34.4419 24.3059 34.2825 24.3096 34.1231 24.3096Z" fill="#0A66C2"/>
<path d="M28.6613 36.9678C27.8025 36.9678 26.8894 36.8853 25.9144 36.7053C23.3794 36.2365 21.3113 34.7778 20.0888 32.5934C19.2469 31.0915 18.5419 28.7421 19.0163 25.2996C18.6694 25.4628 18.33 25.564 18.0019 25.6428C16.7025 25.9559 14.8388 25.4084 13.755 24.3996C12.9338 23.6328 12.5756 22.6371 12.75 21.5965C12.9019 20.6984 13.3444 19.984 14.0306 19.5284C14.8125 19.0109 15.7519 18.9265 16.4063 18.9659C17.715 15.5084 20.4769 13.8153 23.6194 14.6178C25.005 14.9721 26.1319 15.829 26.8763 17.0946C28.2319 19.3953 28.1119 22.5228 27.5475 24.6809C27.4181 25.1815 26.9119 25.4796 26.4056 25.3521C25.9031 25.2209 25.6031 24.709 25.7363 24.2084C26.1806 22.4946 26.325 19.8546 25.2619 18.0471C24.7669 17.209 24.0581 16.6653 23.1544 16.4346C20.7713 15.8215 18.8381 17.2578 17.9513 20.2578C17.8088 20.734 17.3269 21.0153 16.8356 20.9046C16.53 20.8353 15.6075 20.734 15.0638 21.0978C14.9063 21.2046 14.6869 21.4034 14.6006 21.9115C14.5744 22.0634 14.4956 22.5284 15.0338 23.0309C15.765 23.7115 17.025 23.9515 17.5631 23.8221C18.2269 23.6628 19.11 23.449 20.0606 21.0846C20.1675 20.7771 20.28 20.464 20.4038 20.1453C20.5856 19.669 21.1106 19.4215 21.5963 19.5978C22.0763 19.7703 22.3313 20.2934 22.17 20.7771C22.0556 21.1128 21.9431 21.424 21.8269 21.7146C20.4075 25.8303 20.3719 29.2615 21.7256 31.6803C22.6706 33.3678 24.2794 34.4984 26.2575 34.864C34.5825 36.3978 37.725 29.9028 39.5981 26.0178C40.2338 24.6978 40.6181 23.9028 41.1619 23.5146C41.3288 23.3965 41.6588 23.2165 42.1069 22.9803C44.3381 21.8084 49.5656 19.0615 50.1563 13.9146C50.6531 9.61902 47.55 5.54277 43.245 4.82839C41.205 4.48714 39.135 4.96527 37.4419 6.17464C35.7506 7.38402 34.6313 9.18027 34.29 11.2315C34.2413 11.6328 33.9338 12.0921 33.5381 12.1709C32.3025 12.4165 31.3706 13.3709 31.1663 14.599C30.9581 15.8496 31.5769 17.0984 32.7075 17.7078C33.1631 17.9534 33.3338 18.5215 33.0881 18.9771C32.8406 19.4328 32.2763 19.6034 31.8169 19.3596C29.9813 18.3715 28.9744 16.3353 29.3156 14.2915C29.6063 12.5403 30.8569 11.089 32.5163 10.5096C33.0094 8.14714 34.3594 6.07152 36.3488 4.65027C38.4469 3.14839 41.0044 2.55589 43.5506 2.97777C48.825 3.85339 52.6238 8.85589 52.0181 14.1284C51.3113 20.2615 45.2569 23.4415 42.9769 24.6396C42.6356 24.8196 42.3806 24.9471 42.2513 25.0371C42.0694 25.2059 41.6344 26.1078 41.2838 26.8315C39.6413 30.2403 36.3938 36.9678 28.6613 36.9678Z" fill="#0A66C2"/>
</svg>
