<svg width="60" height="61" viewBox="0 0 60 61" fill="none" xmlns="http://www.w3.org/2000/svg">
<path d="M24.5836 27.608H21.4453C21.6391 26.9803 21.7452 26.3288 21.7605 25.672C21.7547 24.4873 21.6867 23.3646 20.925 22.6568C20.4808 22.2443 19.8844 22.0591 19.1519 22.1095C17.5699 22.2162 17.4703 23.9646 17.4035 25.1224C17.373 25.6533 17.3344 26.3154 17.1914 26.5673C16.9933 26.9189 16.5644 27.349 16.1004 27.7556C16.0197 27.638 15.9117 27.5417 15.7855 27.4751C15.6593 27.4086 15.5188 27.3737 15.3762 27.3736H12.5637C12.3306 27.3736 12.107 27.4662 11.9422 27.631C11.7774 27.7959 11.6848 28.0194 11.6848 28.2525V36.2213C11.6848 36.4544 11.7774 36.6779 11.9422 36.8427C12.107 37.0076 12.3306 37.1002 12.5637 37.1002H15.3762C15.5732 37.0999 15.7644 37.0334 15.9191 36.9114C16.0738 36.7894 16.1831 36.619 16.2293 36.4275L16.3465 36.472C16.8893 36.6814 17.4662 36.7887 18.048 36.7884H23.4492C23.909 36.7905 24.3555 36.6344 24.714 36.3464C25.0724 36.0583 25.3209 35.6559 25.418 35.2064L26.5558 30.0607C26.6209 29.7659 26.619 29.4603 26.5502 29.1664C26.4815 28.8724 26.3476 28.5977 26.1586 28.3623C25.9696 28.1269 25.7302 27.937 25.458 27.8064C25.1858 27.6759 24.8878 27.6081 24.5859 27.608H24.5836ZM14.4973 35.3423H13.4426V29.1314H14.4973V35.3423ZM24.8367 29.6787L23.6988 34.8244C23.6867 34.8822 23.655 34.934 23.6091 34.9711C23.5632 35.0083 23.5059 35.0285 23.4469 35.0283H18.0469C17.681 35.0287 17.3182 34.9611 16.9769 34.8291L16.2562 34.5513V29.8884C16.9066 29.4056 18.1746 28.3896 18.7172 27.4392C19.0687 26.8287 19.1133 26.0119 19.1578 25.2232C19.1824 24.7966 19.2223 24.1052 19.3371 23.8603C19.4683 23.8603 19.6453 23.8673 19.7273 23.9435C19.9957 24.192 20.0004 25.2326 20.0027 25.6814C20.0027 26.1045 19.8855 26.7138 19.6746 27.397C19.6032 27.6239 19.5862 27.8644 19.625 28.099C19.6639 28.3336 19.7575 28.5558 19.8982 28.7476C20.0389 28.9393 20.2228 29.0952 20.435 29.2026C20.6472 29.31 20.8817 29.3659 21.1195 29.3658H24.5836C24.8144 29.3681 24.8918 29.4783 24.8367 29.6787Z" fill="#0A66C2"/>
<path d="M44.7304 36.7709C43.3696 36.7711 42.0266 37.08 40.8024 37.6744C39.5782 38.2687 38.5047 39.133 37.6629 40.2021C36.3363 39.6396 32.9554 38.1162 30.3715 36.9525C31.3464 35.1141 31.8575 33.0653 31.8601 30.9843C31.8628 28.9033 31.357 26.8532 30.3867 25.0123L30.8754 24.8002C31.6136 24.4791 32.6332 24.0244 33.9222 23.4514C35.3918 22.7951 36.8707 22.1295 37.6875 21.7615C39.1256 23.5612 41.2006 24.739 43.483 25.0514C45.7655 25.3637 48.0806 24.7865 49.9493 23.4394C51.8181 22.0922 53.0974 20.0782 53.5224 17.814C53.9475 15.5499 53.4859 13.209 52.233 11.2758C50.9801 9.34253 49.0319 7.96499 46.7916 7.4282C44.5514 6.89141 42.1905 7.23648 40.1975 8.39198C38.2046 9.54748 36.7321 11.425 36.085 13.6359C35.4378 15.8468 35.6654 18.2219 36.7207 20.2697C34.1519 21.4275 30.7933 22.9299 29.4551 23.5017C27.8757 21.3023 25.6395 19.6605 23.0681 18.8123C20.4966 17.964 17.7224 17.9532 15.1444 18.7812C12.5664 19.6093 10.3175 21.2336 8.72094 23.4206C7.12441 25.6076 6.26259 28.2445 6.25941 30.9522C6.25623 33.6599 7.11185 36.2989 8.70323 38.4896C10.2946 40.6804 12.5398 42.3099 15.1158 43.1441C17.6919 43.9782 20.4661 43.9738 23.0395 43.1317C25.6129 42.2895 27.853 40.6529 29.4375 38.4572C30.2578 38.8299 31.7215 39.4885 33.1734 40.1389C34.4566 40.7131 35.482 41.1678 36.2203 41.49L36.7078 41.7021C35.8205 43.4514 35.5286 45.4426 35.8766 47.3729C36.2245 49.3033 37.1932 51.0672 38.6355 52.3966C40.0777 53.726 41.9146 54.5481 43.8668 54.738C45.8191 54.9278 47.7799 54.4751 49.4513 53.4485C51.1226 52.4219 52.4131 50.8777 53.1265 49.0505C53.8398 47.2234 53.9371 45.2133 53.4035 43.3258C52.8699 41.4384 51.7346 39.7767 50.1702 38.5936C48.6057 37.4104 46.6978 36.7704 44.7363 36.7709H44.7304ZM41.189 22.4799V20.5978C41.189 19.6533 41.5642 18.7475 42.2321 18.0796C42.9 17.4117 43.8058 17.0365 44.7504 17.0365C45.6949 17.0365 46.6007 17.4117 47.2686 18.0796C47.9365 18.7475 48.3117 19.6533 48.3117 20.5978V22.4564C47.2276 23.0752 46.0017 23.4026 44.7535 23.4067C43.5052 23.4108 42.2772 23.0915 41.189 22.4799ZM44.7504 15.1264C44.3779 15.1264 44.0138 15.0159 43.7041 14.809C43.3944 14.602 43.153 14.3079 43.0105 13.9638C42.868 13.6197 42.8307 13.2411 42.9034 12.8758C42.976 12.5104 43.1554 12.1749 43.4187 11.9115C43.6821 11.6482 44.0177 11.4688 44.383 11.3961C44.7483 11.3235 45.1269 11.3608 45.471 11.5033C45.8151 11.6458 46.1093 11.8872 46.3162 12.1969C46.5231 12.5066 46.6336 12.8707 46.6336 13.2432C46.6329 13.7424 46.4343 14.2211 46.0813 14.5741C45.7283 14.9271 45.2496 15.1257 44.7504 15.1264ZM44.7304 8.90721C46.1377 8.90689 47.5145 9.31629 48.693 10.0854C49.8714 10.8545 50.8004 11.9501 51.3666 13.2384C51.9327 14.5267 52.1116 15.952 51.8812 17.3402C51.6509 18.7285 51.0214 20.0196 50.0695 21.056V20.5978C50.0688 19.6313 49.8049 18.6832 49.3061 17.8552C48.8073 17.0273 48.0925 16.3509 47.2383 15.8986C47.7716 15.3995 48.1424 14.7516 48.3027 14.039C48.4629 13.3264 48.4051 12.5821 48.1368 11.9027C47.8685 11.2234 47.4021 10.6404 46.7982 10.2296C46.1943 9.81882 45.4808 9.59915 44.7504 9.59915C44.02 9.59915 43.3064 9.81882 42.7025 10.2296C42.0986 10.6404 41.6322 11.2234 41.3639 11.9027C41.0956 12.5821 41.0378 13.3264 41.1981 14.039C41.3583 14.7516 41.7292 15.3995 42.2625 15.8986C41.4083 16.3509 40.6934 17.0273 40.1946 17.8552C39.6958 18.6832 39.4319 19.6313 39.4312 20.5978V21.0982C38.4679 20.0661 37.8272 18.775 37.5878 17.3836C37.3485 15.9923 37.5208 14.5613 38.0838 13.2665C38.6468 11.9718 39.5757 10.8698 40.7566 10.096C41.9374 9.3221 43.3186 8.91015 44.7304 8.91073V8.90721ZM19.0664 42.0092C16.8824 42.0103 14.747 41.3637 12.9305 40.1512C11.114 38.9387 9.69788 37.2146 8.86128 35.1972C8.02468 33.1797 7.80519 30.9595 8.23056 28.8173C8.65594 26.6751 9.70707 24.7071 11.251 23.1624C12.7949 21.6176 14.7623 20.5655 16.9043 20.1389C19.0463 19.7124 21.2666 19.9307 23.2845 20.7663C25.3024 21.6018 27.0272 23.017 28.2407 24.8329C29.4542 26.6488 30.1019 28.7837 30.1019 30.9678C30.0988 33.895 28.9347 36.7014 26.865 38.7714C24.7952 40.8413 21.9889 42.0058 19.0617 42.0092H19.0664ZM41.1937 52.1014V50.1092C41.1937 49.1646 41.5689 48.2588 42.2368 47.5909C42.9047 46.923 43.8105 46.5478 44.7551 46.5478C45.6996 46.5478 46.6054 46.923 47.2733 47.5909C47.9412 48.2588 48.3164 49.1646 48.3164 50.1092V52.0732C47.2323 52.692 46.0064 53.0194 44.7581 53.0235C43.5099 53.0276 42.2819 52.7083 41.1937 52.0967V52.1014ZM44.7551 44.6424C44.3826 44.6424 44.0185 44.5319 43.7088 44.325C43.3991 44.1181 43.1577 43.8239 43.0152 43.4798C42.8727 43.1357 42.8354 42.7571 42.908 42.3918C42.9807 42.0265 43.1601 41.6909 43.4234 41.4275C43.6868 41.1642 44.0224 40.9848 44.3877 40.9121C44.753 40.8395 45.1316 40.8768 45.4757 41.0193C45.8198 41.1618 46.114 41.4032 46.3209 41.7129C46.5278 42.0226 46.6383 42.3867 46.6383 42.7592C46.638 43.0068 46.5889 43.2519 46.4938 43.4806C46.3988 43.7092 46.2596 43.9169 46.0843 44.0918C45.909 44.2666 45.701 44.4053 45.4721 44.4997C45.2432 44.5942 44.998 44.6427 44.7504 44.6424H44.7551ZM50.0742 50.6763V50.1139C50.0734 49.1473 49.8095 48.1992 49.3107 47.3714C48.8119 46.5435 48.0971 45.867 47.2429 45.4146C47.7762 44.9156 48.1471 44.2676 48.3074 43.555C48.4676 42.8424 48.4098 42.0981 48.1415 41.4187C47.8732 40.7394 47.4068 40.1564 46.8029 39.7456C46.199 39.3348 45.4855 39.1152 44.7551 39.1152C44.0247 39.1152 43.3111 39.3348 42.7072 39.7456C42.1033 40.1564 41.6369 40.7394 41.3686 41.4187C41.1003 42.0981 41.0425 42.8424 41.2028 43.555C41.363 44.2676 41.7339 44.9156 42.2672 45.4146C41.413 45.867 40.6982 46.5435 40.1995 47.3714C39.7007 48.1992 39.4367 49.1473 39.4359 50.1139V50.7197C38.4737 49.689 37.833 48.4 37.5922 47.0107C37.3515 45.6214 37.5211 44.192 38.0804 42.8976C38.6396 41.6032 39.5642 40.5001 40.741 39.7232C41.9177 38.9463 43.2954 38.5295 44.7054 38.5237C46.1155 38.518 47.4966 38.9236 48.6796 39.6908C49.8626 40.4581 50.7962 41.5537 51.3659 42.8435C51.9357 44.1333 52.117 45.5612 51.8876 46.9525C51.6582 48.3437 51.028 49.6378 50.0742 50.6763Z" fill="#0A66C2"/>
</svg>
