<svg width="60" height="61" viewBox="0 0 60 61" fill="none" xmlns="http://www.w3.org/2000/svg">
<g clip-path="url(#clip0_66_62)">
<path d="M51.6658 25.2691C51.8008 25.1444 51.9358 25.02 52.0714 24.8961C55.3164 21.9236 57.0328 18.0883 56.9043 14.0969C56.7921 10.5958 55.3419 7.30914 52.8209 4.84234C50.2985 2.37437 46.9813 0.998477 43.4799 0.968125C43.4403 0.967891 43.401 0.967773 43.3614 0.967773C39.7626 0.967773 36.3785 2.36008 33.821 4.89602C31.2354 7.45984 29.8115 10.8769 29.8115 14.5178C29.8115 15.1438 29.999 17.8877 30.0796 19.0375C30.0832 19.0902 30.0468 19.1382 29.9945 19.1491C29.4837 19.2561 29.038 19.5747 28.7719 20.0232C28.5066 20.4702 28.4404 21.0116 28.5899 21.5075C29.2337 23.6547 31.0028 28.3168 34.6517 30.3761L33.6246 30.8269C33.4256 30.9125 33.1968 30.8598 33.0556 30.6962L28.6882 25.6271C27.342 24.0631 24.9665 23.8776 23.3922 25.2143C23.0268 25.5249 22.7304 25.8948 22.5105 26.3049C22.0926 26.1571 21.2492 25.8788 21.2492 25.8788C20.0265 25.476 18.8717 25.0957 17.951 24.5099C16.5215 23.5984 15.5769 22.1439 15.2894 20.532L17.3021 22.5447C17.5439 22.7867 17.8654 22.9199 18.2074 22.9199C18.5495 22.9199 18.871 22.7866 19.1127 22.5449L22.7976 18.8602C23.2977 18.3599 23.2978 17.5499 22.7973 17.0495L18.626 12.8784L22.7974 8.70695C23.2964 8.20797 23.2965 7.39586 22.7974 6.89629L19.1126 3.21145C18.6134 2.71246 17.8014 2.71258 17.3023 3.21156L13.1309 7.38309L8.95948 3.21156C8.46037 2.71258 7.64827 2.71258 7.14905 3.21156L3.46409 6.89652C3.22233 7.1384 3.0892 7.45984 3.0892 7.8018C3.0892 8.14375 3.22244 8.46531 3.4642 8.70707L7.63561 12.8784L3.46432 17.0496C3.22245 17.2915 3.0892 17.6131 3.0892 17.955C3.0892 18.297 3.22233 18.6184 3.4642 18.8604L7.14881 22.5449C7.6492 23.0453 8.45909 23.0455 8.95936 22.545L10.4012 21.1032C10.8701 24.1796 12.6435 26.9643 15.3067 28.6609C18.4894 30.6899 21.1906 30.3673 25.2454 33.1919L25.8393 33.8848C25.6608 33.8747 25.4814 33.8685 25.3006 33.8685H18.974L17.6704 32.3705C15.4858 29.8605 11.2305 31.3971 11.2305 34.7475V40.6648C11.2305 42.0482 12.356 43.1738 13.7394 43.1738H21.7147C22.7908 43.1738 23.6663 44.0493 23.6663 45.1255V50.944C23.6663 54.722 26.2342 58.3739 30.0563 60.0311C31.4931 60.6542 33.0523 60.9679 34.6689 60.9679C35.7104 60.9678 36.776 60.8376 37.8475 60.5757C40.9696 59.8128 44.1024 57.9749 47.1587 55.113C47.5131 54.7812 47.5314 54.225 47.1996 53.8707C46.8679 53.5162 46.3116 53.4979 45.9573 53.8298C43.1242 56.4827 40.2553 58.1778 37.4303 58.868C35.0715 59.4442 32.7635 59.2888 30.7556 58.4182C27.6165 57.0571 25.4242 53.9836 25.4242 50.9439V45.1254C25.4242 43.0799 23.7601 41.4159 21.7149 41.4159H13.7396C13.3254 41.4159 12.9884 41.0789 12.9884 40.6648V34.7475C12.9884 32.9896 15.2356 32.2505 16.3444 33.5246L17.6783 35.0574C17.9932 35.419 18.4487 35.6264 18.9281 35.6264H25.3007C29.5542 35.6264 33.0148 39.0871 33.0148 43.3409V46.326C33.0148 46.8115 33.4083 47.2049 33.8937 47.2049C34.3791 47.2049 34.7726 46.8114 34.7726 46.326V43.3409C34.7726 42.4177 34.6374 41.5259 34.39 40.6816C34.5172 40.6888 34.6446 40.6936 34.772 40.6936C35.6253 40.6936 36.4777 40.5324 37.2785 40.2119L41.9216 38.3451C42.372 38.1639 42.5903 37.652 42.4092 37.2017C42.2282 36.7513 41.7162 36.5331 41.2658 36.7141L36.624 38.5804C35.6664 38.9637 34.6085 39.0374 33.6092 38.7977C32.5333 36.8377 30.7837 35.2991 28.6747 34.4921L24.3062 29.3952C23.9555 28.9861 23.7857 28.465 23.8281 27.9279C23.8705 27.391 24.1199 26.903 24.5299 26.5544C25.3701 25.8412 26.6376 25.94 27.3558 26.7745L31.724 31.8446C32.3691 32.5921 33.4117 32.8323 34.3247 32.4395L43.5471 28.3915C44.4025 28.0255 45.3448 28.0159 46.2005 28.365C47.0588 28.7151 47.7262 29.3792 48.0799 30.2354C48.4342 31.0913 48.4307 32.0323 48.0702 32.8848C47.7095 33.7381 47.0362 34.3966 46.1706 34.7406L45.0714 35.1835C44.6212 35.365 44.4032 35.877 44.5846 36.3272C44.7226 36.6699 45.052 36.8779 45.4001 36.8779C45.6843 36.8779 45.7688 36.7851 46.8238 36.3726C48.1293 35.8621 49.144 34.8591 49.6893 33.5691C50.2344 32.2798 50.2397 30.857 49.7044 29.5633C49.1699 28.2699 48.1614 27.2662 46.8644 26.7371C45.5699 26.2091 44.1461 26.2226 42.848 26.7786L36.8606 29.4065C35.1925 28.9383 33.707 27.7262 32.4422 25.7965C31.2692 24.0067 30.5799 22.0247 30.273 21.0014C30.2553 20.9429 30.2935 20.8825 30.3545 20.8697C31.2613 20.6799 31.8969 19.8401 31.8328 18.9155C31.7053 17.0951 31.5689 14.984 31.5689 14.5179C31.5689 11.3493 32.8082 8.37555 35.0583 6.1443C37.3084 3.91316 40.2891 2.70168 43.4643 2.72617C46.5088 2.75254 49.395 3.95031 51.591 6.09895C53.7865 8.24711 55.0493 11.1075 55.1468 14.1535C55.2586 17.6243 53.7444 20.9792 50.884 23.5995C50.7471 23.7245 50.6103 23.8509 50.4735 23.977C50.0847 24.3355 49.8639 24.8245 49.8517 25.3534C49.8395 25.8815 50.0372 26.3788 50.4088 26.7546C52.5006 28.8652 53.7995 32.7481 53.7988 36.8883C53.7979 41.8492 51.9838 46.8298 48.6907 50.9124C48.386 51.2903 48.4452 51.8437 48.823 52.1484C49.2 52.4523 49.7536 52.3947 50.059 52.0161C53.6032 47.622 55.5556 42.2496 55.5566 36.8886C55.5574 32.2326 54.0997 27.9816 51.658 25.518C51.5897 25.4485 51.594 25.3352 51.6658 25.2691ZM8.0542 20.9642L5.04494 17.9549L9.21659 13.7834C9.71545 13.2841 9.71533 12.472 9.21635 11.973L5.04494 7.80156L8.0542 4.7923L12.2257 8.96395C12.7247 9.4627 13.5368 9.46281 14.036 8.96383L18.2074 4.7923L21.2167 7.80156L17.0452 11.9731C16.8034 12.215 16.6703 12.5364 16.6703 12.8784C16.6703 13.2203 16.8035 13.5419 17.0453 13.7836L21.2167 17.9549L18.2074 20.9642L14.036 16.7928C13.5369 16.2938 12.7248 16.2938 12.2256 16.7928L8.0542 20.9642ZM16.2515 27.1784C13.6288 25.5075 12.0347 22.5775 12.0345 19.4699L13.1308 18.3736L13.4775 18.7204C13.1904 21.6051 14.5417 24.4212 17.0065 25.9927C18.1131 26.6969 19.3691 27.1105 20.7024 27.5498L20.724 27.5569C21.1648 27.7023 21.6176 27.8525 22.0654 28.0135C22.0537 28.5842 22.1699 29.1406 22.403 29.6498C22.2203 29.5749 22.0368 29.5021 21.8521 29.4328C20.0438 28.752 18.0033 28.295 16.2515 27.1784Z" fill="#0A66C2"/>
<path d="M36.8217 17.1712C36.3987 17.6631 35.6844 17.7617 35.1461 17.4218C34.7353 17.1625 34.1928 17.2853 33.9335 17.6957C33.6743 18.1062 33.7969 18.649 34.2074 18.9082C34.6991 19.2188 35.263 19.3802 35.8362 19.3802C36.7571 19.3802 37.5955 18.9675 38.1545 18.3175C38.471 17.9494 38.4292 17.3945 38.0612 17.0779C37.6933 16.7614 37.1383 16.8032 36.8217 17.1712Z" fill="#0A66C2"/>
<path d="M43.3533 20.9317C42.9343 20.6862 42.3961 20.8267 42.1506 21.2457C41.9052 21.6645 42.0458 22.2029 42.4647 22.4483C42.8955 22.7009 43.3651 22.8548 43.8601 22.9058C45.8552 23.1122 47.6562 21.5597 47.8748 19.4455C48.0914 17.3506 46.6768 15.4459 44.6532 15.2368C43.917 15.1609 43.1844 15.3202 42.5344 15.6982C42.1147 15.9422 41.9723 16.4802 42.2164 16.8998C42.4606 17.3194 42.9984 17.4615 43.4181 17.2178C43.7441 17.0282 44.1086 16.9481 44.4722 16.9854C45.4705 17.0886 46.2489 18.0783 46.1262 19.2648C45.9723 20.7526 44.5118 21.61 43.3533 20.9317Z" fill="#0A66C2"/>
</g>
<defs>
<clipPath id="clip0_66_62">
<rect width="60" height="60" fill="white" transform="translate(0 0.967773)"/>
</clipPath>
</defs>
</svg>
