<svg width="24" height="24" viewBox="0 0 24 24" fill="none" xmlns="http://www.w3.org/2000/svg">
<path d="M21.0315 19.1347L16.8142 14.9191C18.0365 13.4519 18.646 11.57 18.5159 9.66488C18.3859 7.7598 17.5262 5.9782 16.1157 4.6907C14.7052 3.4032 12.8526 2.70893 10.9432 2.75231C9.03378 2.7957 7.21461 3.5734 5.8641 4.92363C4.5136 6.27387 3.73574 8.09268 3.69235 10.0017C3.64895 11.9107 4.34336 13.763 5.63112 15.1732C6.91887 16.5834 8.70083 17.4429 10.6063 17.5729C12.5118 17.703 14.394 17.0936 15.8615 15.8715L20.078 20.088C20.1406 20.1506 20.2149 20.2002 20.2967 20.2341C20.3785 20.268 20.4662 20.2854 20.5548 20.2854C20.6433 20.2854 20.731 20.268 20.8128 20.2341C20.8946 20.2002 20.9689 20.1506 21.0315 20.088C21.0941 20.0254 21.1438 19.9511 21.1776 19.8693C21.2115 19.7875 21.229 19.6999 21.229 19.6113C21.229 19.5228 21.2115 19.4352 21.1776 19.3534C21.1438 19.2716 21.0941 19.1973 21.0315 19.1347ZM5.0567 10.1796C5.0567 8.98044 5.41238 7.80818 6.07875 6.81108C6.74512 5.81399 7.69226 5.03685 8.80039 4.57793C9.90852 4.11902 11.1279 3.99895 12.3043 4.2329C13.4807 4.46685 14.5612 5.04432 15.4094 5.89228C16.2575 6.74024 16.8351 7.82061 17.0691 8.99676C17.3031 10.1729 17.183 11.392 16.724 12.4999C16.265 13.6079 15.4877 14.5548 14.4904 15.221C13.4931 15.8873 12.3206 16.2429 11.1212 16.2429C9.51331 16.2411 7.97183 15.6017 6.83491 14.465C5.69799 13.3283 5.05849 11.7872 5.0567 10.1796Z" fill="#444444"/>
</svg>
