<svg width="34" height="35" viewBox="0 0 34 35" fill="none" xmlns="http://www.w3.org/2000/svg">
<path d="M32.8564 10.1239C32.776 9.92975 32.6399 9.76379 32.4652 9.647C32.2905 9.53022 32.0851 9.46786 31.8749 9.46782H27.8334C27.2684 8.5065 26.4642 7.70773 25.4991 7.14919C24.5339 6.59064 23.4407 6.29132 22.3257 6.28032C21.495 6.26942 20.6705 6.42479 19.9007 6.73726C19.1309 7.04974 18.4314 7.51302 17.8433 8.09985C17.238 8.69382 16.7576 9.40281 16.4303 10.1851C16.103 10.9674 15.9354 11.8073 15.9374 12.6553V13.4641C10.5904 12.0537 6.21686 7.70407 6.17038 7.65759C6.02783 7.51378 5.84716 7.4137 5.64964 7.36913C5.45212 7.32456 5.24598 7.33736 5.05549 7.40602C4.865 7.47468 4.6981 7.59634 4.57444 7.75667C4.45078 7.91701 4.3755 8.10934 4.35749 8.31102C3.78506 14.6581 5.6285 18.9055 7.27936 21.3506C8.08431 22.5593 9.06354 23.6423 10.1853 24.5646C8.16256 26.8928 4.97772 28.116 4.94319 28.1293C4.79326 28.1855 4.65796 28.2748 4.5474 28.3906C4.43684 28.5064 4.35388 28.6456 4.30471 28.798C4.25554 28.9503 4.24144 29.1119 4.26345 29.2704C4.28547 29.429 4.34304 29.5806 4.43186 29.7138C4.53147 29.8625 4.92991 30.3845 5.90342 30.8719C7.1067 31.4749 8.69647 31.7803 10.6249 31.7803C20.0108 31.7803 27.8533 24.5527 28.6542 15.2531L32.6266 11.282C32.7752 11.1334 32.8763 10.944 32.9172 10.7378C32.9581 10.5317 32.9369 10.318 32.8564 10.1239ZM26.8798 14.0299C26.6977 14.2125 26.5881 14.4552 26.5717 14.7126C26.0312 23.0917 19.0293 29.6553 10.6249 29.6553C9.22241 29.6553 8.23428 29.4694 7.541 29.2463C9.06967 28.4162 11.2013 26.9884 12.5719 24.9325C12.6524 24.8116 12.7072 24.6755 12.733 24.5326C12.7588 24.3897 12.755 24.243 12.7219 24.1017C12.6888 23.9603 12.6271 23.8272 12.5405 23.7106C12.4539 23.594 12.3444 23.4964 12.2187 23.4238C12.1562 23.3879 6.38686 19.9255 6.37491 10.6738C8.49991 12.4003 12.3847 15.0791 16.8233 15.8256C16.9754 15.8512 17.1313 15.8434 17.2801 15.8027C17.4289 15.7621 17.5671 15.6895 17.685 15.59C17.8029 15.4905 17.8977 15.3666 17.9629 15.2268C18.0281 15.0869 18.062 14.9346 18.0624 14.7803V12.6553C18.0612 12.0885 18.1734 11.5273 18.3924 11.0045C18.6113 10.4817 18.9326 10.008 19.3374 9.61126C19.7254 9.22251 20.1874 8.9155 20.6961 8.70837C21.2048 8.50124 21.7499 8.39819 22.2991 8.40532C23.9805 8.42657 25.5517 9.45188 26.2091 10.9566C26.292 11.1458 26.4282 11.3068 26.6011 11.4198C26.774 11.5327 26.9761 11.5929 27.1826 11.5928H29.3076L26.8798 14.0299Z" fill="#444444"/>
</svg>
